<svg width="338" height="364" viewBox="0 0 338 364" fill="none" xmlns="http://www.w3.org/2000/svg">
<path d="M254.193 125.311C251.081 134.75 246.988 143.989 240.823 151.856C234.321 160.16 226.016 166.953 217.443 172.99C209.187 178.798 200.753 184.864 191.238 188.415C182.507 191.677 173.329 193.447 164.231 195.357C144.349 199.534 124.151 205.71 107.52 217.803C98.4913 224.367 90.9688 232.343 85.7358 242.279C80.592 252.045 77.2025 262.697 73.7039 273.129C66.677 294.104 57.4797 314.631 42.97 331.528C35.0115 340.797 26.0222 349.002 15.9725 355.924C11.7008 358.868 4.30137 361.096 0 364H338V0C321.796 4.99257 309.189 14.739 296.76 25.9474C282.499 38.8068 273.44 55.3658 267.741 73.5757C262.429 90.6022 259.783 108.355 254.193 125.311Z" fill="white"/>
</svg>
