<svg width="78" height="78" viewBox="0 0 78 78" fill="none" xmlns="http://www.w3.org/2000/svg">
<g clip-path="url(#clip0_71_985)">
<path d="M31.4784 71.5844L30.8768 57.486C29.9755 58.1256 29.0454 58.7254 28.0865 59.2793L20.1031 63.8908L23.5944 74.6775C24.12 76.3018 25.8024 77.2546 27.4633 76.869C29.8993 76.3032 31.585 74.0845 31.4784 71.5844Z" fill="#80B4FB"/>
<path d="M27.9109 71.8364L24.5144 61.3425L20.1031 63.8906L23.5944 74.6773C24.1201 76.3015 25.8024 77.2544 27.4633 76.8688C29.023 76.5067 30.2739 75.4664 30.945 74.109C29.5855 74.0708 28.3479 73.1873 27.9109 71.8364Z" fill="#61A2F9"/>
<path d="M18.8608 50.0535C19.4146 49.0945 20.0142 48.1642 20.6538 47.2629L6.55101 46.6569C4.0499 46.5495 1.8311 48.2351 1.26604 50.6717C0.88075 52.3329 1.83445 54.0161 3.4594 54.5423L14.2504 58.0379L18.8608 50.0535Z" fill="#80B4FB"/>
<path d="M7.77589 51.7015C6.15094 51.1751 5.19724 49.4921 5.58253 47.8309C5.67821 47.418 5.82248 47.0276 6.00652 46.6628C3.73393 46.8016 1.78966 48.4135 1.26604 50.6717C0.88075 52.3329 1.83445 54.0161 3.45925 54.5423L14.2502 58.0379L16.3123 54.4669L7.77589 51.7015Z" fill="#61A2F9"/>
<path d="M63.3926 49.8578L69.6711 43.5793C70.5372 42.7132 70.5721 41.3308 69.7486 40.5072L66.0886 36.8472C65.265 36.0236 63.8826 36.0585 63.0165 36.9248L59.4337 40.5075L63.3926 49.8578Z" fill="#DD636E"/>
<path d="M37.7521 18.5756L41.2479 15.0798C42.0929 14.2347 42.1108 12.8693 41.2872 12.0459L37.6271 8.38588C36.8035 7.56229 35.4384 7.58011 34.5933 8.42519L28.467 14.5514L37.7521 18.5756Z" fill="#DD636E"/>
<path d="M67.3735 38.1498C67.3766 38.1467 67.3796 38.1441 67.3825 38.1411L66.0885 36.847C65.2649 36.0234 63.8826 36.0583 63.0164 36.9246L59.4336 40.5074L61.094 44.4291L67.3735 38.1498Z" fill="#DA4A54"/>
<path d="M38.9211 9.67963L37.6274 8.38589C36.8038 7.56229 35.4386 7.58011 34.5935 8.42519L28.4673 14.5514L32.3616 16.2393L38.9211 9.67963Z" fill="#DA4A54"/>
<path d="M69.7166 62.8521L56.3079 32.7037L44.5792 44.4324L63.2316 69.7514C63.9487 70.7249 65.3628 70.8332 66.2159 69.9801L68.8939 67.3021C70.0623 66.1337 70.3893 64.365 69.7166 62.8521Z" fill="#80B4FB"/>
<path d="M56.3078 32.7037L44.579 44.4326L47.3645 48.2136L58.3293 37.2489L56.3078 32.7037Z" fill="#61A2F9"/>
<path d="M15.2783 8.41482L45.3792 21.8087L33.6505 33.5662L8.37952 14.9163C7.40799 14.1992 7.3012 12.7833 8.15435 11.9281L10.8323 9.24359C12.0008 8.07218 13.7679 7.74281 15.2783 8.41482Z" fill="#80B4FB"/>
<path d="M33.6504 33.5662L45.3791 21.8087L40.8827 19.8079L29.8956 30.7951L33.6504 33.5662Z" fill="#61A2F9"/>
<path d="M66.7923 66.1904L48.14 40.8716L44.579 44.4326L63.2313 69.7516C63.9484 70.7251 65.3625 70.8334 66.2157 69.9803L68.8936 67.3023C69.0701 67.1259 69.2248 66.9344 69.3624 66.7336C68.5178 67.2183 67.4029 67.0194 66.7923 66.1904Z" fill="#80B4FB"/>
<path d="M48.14 40.8716L44.579 44.4326L47.3645 48.2136L50.9255 44.6526L48.14 40.8716Z" fill="#3D8BD8"/>
<path d="M11.401 8.77362C11.2003 8.9115 11.0089 9.06674 10.8323 9.24362L8.15435 11.9281C7.3012 12.7833 7.40799 14.1992 8.37952 14.9163L33.6505 33.5662L37.2115 29.9965L11.9405 11.3466C11.1133 10.736 10.9157 9.61992 11.401 8.77362Z" fill="#80B4FB"/>
<path d="M33.6504 33.5662L37.2114 29.9965L33.4615 27.2291L29.8956 30.7951L33.6504 33.5662Z" fill="#3D8BD8"/>
<path d="M76.8901 7.93537C76.8365 6.2734 76.3647 4.51484 74.9922 3.14233C73.6197 1.76983 71.8611 1.29785 70.1991 1.24438C67.5018 1.15739 64.9003 2.25414 62.992 4.16246L24.4772 42.6771C22.2838 44.8704 20.3865 47.3411 18.8333 50.0261L12.7121 60.6083C12.3852 61.1736 12.2333 61.7997 12.2418 62.4196L20.5076 54.1538C21.4667 53.1948 23.0215 53.1948 23.9804 54.1538C24.9394 55.1128 24.9394 56.6677 23.9804 57.6266L15.7146 65.8924C16.3345 65.9009 16.9606 65.749 17.5259 65.4221L28.1081 59.3009C30.7931 57.7477 33.2638 55.8503 35.4571 53.657L73.972 15.1425C75.8804 13.2342 76.9771 10.6325 76.8901 7.93537Z" fill="#DBEDFF"/>
<path d="M74.9922 3.14221C73.6196 1.7697 71.8611 1.29788 70.1991 1.24425C67.5018 1.15726 64.9003 2.25402 62.992 4.16234L24.4772 42.6771C22.2838 44.8705 20.3865 47.3411 18.8333 50.0261L12.7121 60.6084C12.3852 61.1736 12.2333 61.7997 12.2418 62.4197L20.5076 54.1538C21.1859 53.4756 22.1614 53.2795 23.0142 53.5606L23.5054 52.7114C25.0586 50.0262 26.9559 47.5558 29.1493 45.3624L67.664 6.84763C69.5724 4.93931 72.1739 3.84256 74.8712 3.92955C75.1456 3.93839 75.4227 3.96002 75.7003 3.99384C75.4961 3.69767 75.2623 3.41233 74.9922 3.14221Z" fill="#B5DCFF"/>
<path d="M24.0327 54.1171C23.0553 53.1397 21.4827 53.1275 20.5203 54.0899L11.4212 63.189C10.4588 64.1514 10.471 65.724 11.4484 66.7014C12.4259 67.6789 13.9984 67.6911 14.9608 66.7287L24.06 57.6295C25.0224 56.6671 25.0102 55.0946 24.0327 54.1171Z" fill="#DD636E"/>
<path d="M14.3615 67.0023C13.384 66.0248 13.3719 64.4521 14.3342 63.4898L23.4334 54.3906C23.5826 54.2415 23.7476 54.1187 23.9214 54.0163C22.9394 53.1427 21.4474 53.1625 20.5202 54.0897L11.421 63.1889C10.4587 64.1513 10.4708 65.7238 11.4483 66.7013C12.2743 67.5273 13.5241 67.6612 14.4727 67.1029C14.4354 67.0698 14.3973 67.0381 14.3615 67.0023Z" fill="#DA4A54"/>
<path d="M69.9704 12.0104L70.0673 12.5154C70.186 13.1332 70.7826 13.5413 71.4047 13.4223C72.0243 13.3035 72.4304 12.7048 72.3117 12.085L72.2148 11.58C71.6482 8.62594 69.3735 6.35107 66.4194 5.78479L65.9146 5.68805C65.2925 5.56861 64.6959 5.97538 64.5772 6.59514C64.4586 7.21489 64.8647 7.81362 65.4843 7.9323L65.9892 8.02904C68.0186 8.41829 69.5813 9.98093 69.9704 12.0104Z" fill="black"/>
<path d="M67.2025 23.3934L74.7422 15.8534C78.9114 11.6845 78.8858 5.36081 75.7625 2.23721C72.6418 -0.883348 66.3175 -0.913818 62.1462 3.25733L45.0882 20.3155L39.8282 17.9808L42.0576 15.7513C43.3287 14.4802 43.3287 12.412 42.0576 11.1408L38.3976 7.48074C37.1264 6.20969 35.0582 6.20969 33.787 7.48074L28.3722 12.8955L15.7043 7.27248C13.7563 6.40775 11.4545 6.86708 9.98677 8.33557L7.30863 11.0137C5.96294 12.3595 6.12808 14.5916 7.66437 15.7226L20.2998 25.0247L31.8648 33.5389L23.6316 41.7721C22.3239 43.0796 21.1213 44.4862 20.0268 45.973L6.55679 45.4143C3.51378 45.2898 0.805484 47.3485 0.113821 50.3131C-0.404468 52.5337 0.88958 54.8217 3.05978 55.5216L12.4824 58.5611L11.6853 59.9391C11.3509 60.5171 11.1486 61.1612 11.085 61.8256L10.5951 62.3156C9.18861 63.7217 9.18846 65.9978 10.5949 67.4043C11.9979 68.8073 14.2807 68.8073 15.6837 67.4043L16.1738 66.9142C16.8383 66.8505 17.4825 66.648 18.0603 66.3139L19.4383 65.5169L22.4778 74.9393C23.1786 77.1123 25.4684 78.4035 27.6863 77.8856C30.651 77.1938 32.7112 74.4841 32.5851 71.4424L32.0266 57.9725C33.5133 56.8779 34.9201 55.6753 36.2276 54.3678L44.4608 46.1346L62.277 70.335C63.4075 71.8701 65.6397 72.0369 66.9861 70.6906L69.6641 68.0126C71.1235 66.5533 71.597 64.2548 70.7272 62.2951L65.1042 49.627L70.5191 44.2123C71.7901 42.9412 71.7901 40.8729 70.5191 39.6019L66.8591 35.9419C65.5879 34.6707 63.5196 34.6707 62.2484 35.9419L60.0191 38.1712L57.6843 32.9114L63.4321 27.1636C63.8784 26.7173 63.8784 25.9938 63.4321 25.5478C62.9858 25.1015 62.2624 25.1015 61.8162 25.5478L55.514 31.85C55.514 31.85 34.6211 52.743 34.6119 52.7522C30.6926 56.6715 27.5516 58.1843 21.272 61.8166L24.7509 58.3376C26.159 56.9297 26.1548 54.6524 24.751 53.2488H24.7509C23.3543 51.8524 21.0668 51.844 19.662 53.2488L16.1832 56.7276L19.7849 50.5009C21.2211 48.0182 23.0577 45.5776 25.2477 43.3878C25.9409 42.6946 63.5172 5.11797 63.7623 4.87299C67.0457 1.58988 71.9304 1.6365 74.1467 3.85286C76.3597 6.06603 76.4131 10.9508 73.1265 14.2372L65.5867 21.7773C65.1404 22.2235 65.1404 22.947 65.5867 23.3931C66.0326 23.8393 66.7559 23.8396 67.2025 23.3934ZM63.8644 37.558C64.2443 37.1779 64.863 37.1779 65.243 37.558L68.903 41.218C69.2831 41.5981 69.2831 42.2165 68.903 42.5966L64.1105 47.3892L61.0125 40.4097L63.8644 37.558ZM55.9526 34.6433C57.5094 38.1508 61.1533 46.3598 62.6971 49.8377V49.8379L68.6384 63.2228C68.999 64.0351 68.9485 64.965 68.5418 65.7285C68.2246 65.8072 67.8812 65.6949 67.6784 65.4197L49.6563 40.9395L55.9526 34.6433ZM48.0219 42.5739L65.838 66.7743C66.1054 67.1375 66.4377 67.4268 66.8083 67.6369L65.3702 69.0751C65.012 69.4336 64.4189 69.39 64.1174 68.9805L46.0953 44.5005L48.0219 42.5739ZM29.8026 59.4922L30.302 71.5372C30.3826 73.4836 29.0643 75.2176 27.1671 75.6602C26.0941 75.9104 24.9905 75.2857 24.6527 74.238L21.4621 64.3467C28.9755 60.0006 29.0626 59.959 29.8026 59.4922ZM21.2778 54.8649C21.79 54.3527 22.6232 54.3532 23.1347 54.8649H23.1349C23.6472 55.3774 23.6491 56.2074 23.1347 56.7218L14.8689 64.9876L14.0677 65.7888C13.556 66.3007 12.7228 66.3007 12.2109 65.7888C11.6973 65.2752 11.6976 64.4451 12.2109 63.9318L21.2778 54.8649ZM17.8067 49.3571L13.9233 56.0705L13.653 56.5377L3.7615 53.3469C2.7138 53.009 2.08902 51.9045 2.33918 50.8326C2.7691 48.9907 4.41614 47.6942 6.29308 47.6942C6.34914 47.6942 6.40566 47.6953 6.46218 47.6977L18.5072 48.1971C18.4074 48.3557 18.0609 48.9174 17.8067 49.3571ZM35.4029 9.0967C35.7832 8.71659 36.4017 8.71659 36.7817 9.0967L40.4417 12.7567C40.8218 13.1368 40.8218 13.7554 40.4417 14.1355L37.5899 16.9873C32.9615 14.9329 34.5565 15.6408 30.6105 13.8893L35.4029 9.0967ZM37.0602 28.3435L30.5141 23.5243C30.006 23.1499 29.2907 23.2587 28.9165 23.767C28.5425 24.275 28.6511 24.9903 29.1594 25.3645L35.4258 29.9779L33.4992 31.9045L9.0192 13.8824C8.61106 13.5817 8.56566 12.9886 8.92474 12.6297L10.3629 11.1915C10.5732 11.562 10.8623 11.8944 11.2255 12.1616L24.8162 22.167C25.3243 22.5412 26.0394 22.4325 26.4137 21.9243C26.7878 21.4162 26.6791 20.7009 26.1709 20.3268L12.5802 10.3214C12.3049 10.1187 12.1926 9.77526 12.2715 9.45777C13.0478 9.04414 13.976 9.0059 14.7771 9.36133L43.3566 22.0472L37.0602 28.3435Z" fill="black"/>
</g>
<defs>
<clipPath id="clip0_71_985">
<rect width="78" height="78" fill="white"/>
</clipPath>
</defs>
</svg>
