<svg width="78" height="78" viewBox="0 0 78 78" fill="none" xmlns="http://www.w3.org/2000/svg">
<path d="M61.8638 56.0625H8.23877C7.56572 56.0625 7.02002 56.6082 7.02002 57.2812V76.7812C7.02002 77.4543 7.56572 78 8.23877 78H61.8638C62.5368 78 63.0825 77.4543 63.0825 76.7812V57.2812C63.0825 56.6082 62.5368 56.0625 61.8638 56.0625Z" fill="#FF8660"/>
<path d="M11.895 75.5625C11.222 75.5625 10.6763 75.0168 10.6763 74.3438V56.0625H8.23877C7.56572 56.0625 7.02002 56.6082 7.02002 57.2812V76.7812C7.02002 77.4543 7.56572 78 8.23877 78H61.8638C62.5368 78 63.0825 77.4543 63.0825 76.7812V75.5625H11.895Z" fill="#FF6838"/>
<path d="M17.9888 75.5625C17.3157 75.5625 16.77 75.0168 16.77 74.3438V59.7188C16.77 59.0457 17.3157 58.5 17.9888 58.5C18.6618 58.5 19.2075 59.0457 19.2075 59.7188V74.3438C19.2075 75.0168 18.6618 75.5625 17.9888 75.5625Z" fill="#FFC3AF"/>
<path d="M22.8638 75.5625C22.1907 75.5625 21.645 75.0168 21.645 74.3438V59.7188C21.645 59.0457 22.1907 58.5 22.8638 58.5C23.5368 58.5 24.0825 59.0457 24.0825 59.7188V74.3438C24.0825 75.0168 23.5368 75.5625 22.8638 75.5625Z" fill="#FFC3AF"/>
<path d="M27.7388 75.5625C27.0657 75.5625 26.52 75.0168 26.52 74.3438V59.7188C26.52 59.0457 27.0657 58.5 27.7388 58.5C28.4118 58.5 28.9575 59.0457 28.9575 59.7188V74.3438C28.9575 75.0168 28.4118 75.5625 27.7388 75.5625Z" fill="#FFC3AF"/>
<path d="M32.6138 75.5625C31.9407 75.5625 31.395 75.0168 31.395 74.3438V59.7188C31.395 59.0457 31.9407 58.5 32.6138 58.5C33.2868 58.5 33.8325 59.0457 33.8325 59.7188V74.3438C33.8325 75.0168 33.2868 75.5625 32.6138 75.5625Z" fill="#FFC3AF"/>
<path d="M37.4888 75.5625C36.8157 75.5625 36.27 75.0168 36.27 74.3438V59.7188C36.27 59.0457 36.8157 58.5 37.4888 58.5C38.1618 58.5 38.7075 59.0457 38.7075 59.7188V74.3438C38.7075 75.0168 38.1618 75.5625 37.4888 75.5625Z" fill="#FFC3AF"/>
<path d="M42.3638 75.5625C41.6907 75.5625 41.145 75.0168 41.145 74.3438V59.7188C41.145 59.0457 41.6907 58.5 42.3638 58.5C43.0368 58.5 43.5825 59.0457 43.5825 59.7188V74.3438C43.5825 75.0168 43.0368 75.5625 42.3638 75.5625Z" fill="#FFC3AF"/>
<path d="M47.2388 75.5625C46.5657 75.5625 46.02 75.0168 46.02 74.3438V59.7188C46.02 59.0457 46.5657 58.5 47.2388 58.5C47.9118 58.5 48.4575 59.0457 48.4575 59.7188V74.3438C48.4575 75.0168 47.9118 75.5625 47.2388 75.5625Z" fill="#FFC3AF"/>
<path d="M52.1138 75.5625C51.4407 75.5625 50.895 75.0168 50.895 74.3438V59.7188C50.895 59.0457 51.4407 58.5 52.1138 58.5C52.7868 58.5 53.3325 59.0457 53.3325 59.7188V74.3438C53.3325 75.0168 52.7868 75.5625 52.1138 75.5625Z" fill="#FFC3AF"/>
<path d="M58.2075 63.375C57.5345 63.375 56.9888 62.8293 56.9888 62.1562V60.9375C56.3157 60.9375 55.77 60.3918 55.77 59.7188C55.77 59.0457 56.3157 58.5 56.9888 58.5H58.2075C58.8806 58.5 59.4263 59.0457 59.4263 59.7188V62.1562C59.4263 62.8293 58.8806 63.375 58.2075 63.375Z" fill="#FFC3AF"/>
<path d="M11.895 63.375C11.222 63.375 10.6763 62.8293 10.6763 62.1562V59.7188C10.6763 59.0457 11.222 58.5 11.895 58.5H13.1138C13.7868 58.5 14.3325 59.0457 14.3325 59.7188C14.3325 60.3918 13.7868 60.9375 13.1138 60.9375V62.1562C13.1138 62.8293 12.5681 63.375 11.895 63.375Z" fill="#FFC3AF"/>
<path d="M58.2075 75.5625H56.9888C56.3157 75.5625 55.77 75.0168 55.77 74.3438C55.77 73.6707 56.3157 73.125 56.9888 73.125V71.9062C56.9888 71.2332 57.5345 70.6875 58.2075 70.6875C58.8806 70.6875 59.4263 71.2332 59.4263 71.9062V74.3438C59.4263 75.0168 58.8806 75.5625 58.2075 75.5625Z" fill="#FFC3AF"/>
<path d="M13.1138 75.5625H11.895C11.222 75.5625 10.6763 75.0168 10.6763 74.3438V71.9062C10.6763 71.2332 11.222 70.6875 11.895 70.6875C12.5681 70.6875 13.1138 71.2332 13.1138 71.9062V73.125C13.7868 73.125 14.3325 73.6707 14.3325 74.3438C14.3325 75.0168 13.7868 75.5625 13.1138 75.5625Z" fill="#FFC3AF"/>
<path d="M69.1763 34.125H15.5513C14.8782 34.125 14.3325 34.6707 14.3325 35.3438V54.8438C14.3325 55.5168 14.8782 56.0625 15.5513 56.0625H69.1763C69.8493 56.0625 70.395 55.5168 70.395 54.8438V35.3438C70.395 34.6707 69.8493 34.125 69.1763 34.125Z" fill="#FFD147"/>
<path d="M19.2075 53.625C18.5345 53.625 17.9888 53.0793 17.9888 52.4062V34.125H15.5513C14.8782 34.125 14.3325 34.6707 14.3325 35.3438V54.8438C14.3325 55.5168 14.8782 56.0625 15.5513 56.0625H69.1763C69.8493 56.0625 70.395 55.5168 70.395 54.8438V53.625H19.2075Z" fill="#FFC519"/>
<path d="M25.3013 53.625C24.6282 53.625 24.0825 53.0793 24.0825 52.4062V37.7812C24.0825 37.1082 24.6282 36.5625 25.3013 36.5625C25.9743 36.5625 26.52 37.1082 26.52 37.7812V52.4062C26.52 53.0793 25.9743 53.625 25.3013 53.625Z" fill="#FFE8A3"/>
<path d="M30.1763 53.625C29.5032 53.625 28.9575 53.0793 28.9575 52.4062V37.7812C28.9575 37.1082 29.5032 36.5625 30.1763 36.5625C30.8493 36.5625 31.395 37.1082 31.395 37.7812V52.4062C31.395 53.0793 30.8493 53.625 30.1763 53.625Z" fill="#FFE8A3"/>
<path d="M35.0513 53.625C34.3782 53.625 33.8325 53.0793 33.8325 52.4062V37.7812C33.8325 37.1082 34.3782 36.5625 35.0513 36.5625C35.7243 36.5625 36.27 37.1082 36.27 37.7812V52.4062C36.27 53.0793 35.7243 53.625 35.0513 53.625Z" fill="#FFE8A3"/>
<path d="M39.9263 53.625C39.2532 53.625 38.7075 53.0793 38.7075 52.4062V37.7812C38.7075 37.1082 39.2532 36.5625 39.9263 36.5625C40.5993 36.5625 41.145 37.1082 41.145 37.7812V52.4062C41.145 53.0793 40.5993 53.625 39.9263 53.625Z" fill="#FFE8A3"/>
<path d="M44.8013 53.625C44.1282 53.625 43.5825 53.0793 43.5825 52.4062V37.7812C43.5825 37.1082 44.1282 36.5625 44.8013 36.5625C45.4743 36.5625 46.02 37.1082 46.02 37.7812V52.4062C46.02 53.0793 45.4743 53.625 44.8013 53.625Z" fill="#FFE8A3"/>
<path d="M49.6763 53.625C49.0032 53.625 48.4575 53.0793 48.4575 52.4062V37.7812C48.4575 37.1082 49.0032 36.5625 49.6763 36.5625C50.3493 36.5625 50.895 37.1082 50.895 37.7812V52.4062C50.895 53.0793 50.3493 53.625 49.6763 53.625Z" fill="#FFE8A3"/>
<path d="M54.5513 53.625C53.8782 53.625 53.3325 53.0793 53.3325 52.4062V37.7812C53.3325 37.1082 53.8782 36.5625 54.5513 36.5625C55.2243 36.5625 55.77 37.1082 55.77 37.7812V52.4062C55.77 53.0793 55.2243 53.625 54.5513 53.625Z" fill="#FFE8A3"/>
<path d="M59.4263 53.625C58.7532 53.625 58.2075 53.0793 58.2075 52.4062V37.7812C58.2075 37.1082 58.7532 36.5625 59.4263 36.5625C60.0993 36.5625 60.645 37.1082 60.645 37.7812V52.4062C60.645 53.0793 60.0993 53.625 59.4263 53.625Z" fill="#FFE8A3"/>
<path d="M65.52 41.4375C64.847 41.4375 64.3013 40.8918 64.3013 40.2187V39C63.6282 39 63.0825 38.4543 63.0825 37.7812C63.0825 37.1082 63.6282 36.5625 64.3013 36.5625H65.52C66.1931 36.5625 66.7388 37.1082 66.7388 37.7812V40.2187C66.7388 40.8918 66.1931 41.4375 65.52 41.4375Z" fill="#FFE8A3"/>
<path d="M19.2075 41.4375C18.5345 41.4375 17.9888 40.8918 17.9888 40.2187V37.7812C17.9888 37.1082 18.5345 36.5625 19.2075 36.5625H20.4263C21.0993 36.5625 21.645 37.1082 21.645 37.7812C21.645 38.4543 21.0993 39 20.4263 39V40.2187C20.4263 40.8918 19.8806 41.4375 19.2075 41.4375Z" fill="#FFE8A3"/>
<path d="M65.52 53.625H64.3013C63.6282 53.625 63.0825 53.0793 63.0825 52.4062C63.0825 51.7332 63.6282 51.1875 64.3013 51.1875V49.9688C64.3013 49.2957 64.847 48.75 65.52 48.75C66.1931 48.75 66.7388 49.2957 66.7388 49.9688V52.4062C66.7388 53.0793 66.1931 53.625 65.52 53.625Z" fill="#FFE8A3"/>
<path d="M20.4263 53.625H19.2075C18.5345 53.625 17.9888 53.0793 17.9888 52.4062V49.9688C17.9888 49.2957 18.5345 48.75 19.2075 48.75C19.8806 48.75 20.4263 49.2957 20.4263 49.9688V51.1875C21.0993 51.1875 21.645 51.7332 21.645 52.4062C21.645 53.0793 21.0993 53.625 20.4263 53.625Z" fill="#FFE8A3"/>
<path d="M55.7701 14.6256C55.6356 14.6256 55.4987 14.603 55.3648 14.5554L35.0513 7.38629L14.7378 14.5554C14.1041 14.7791 13.4072 14.4465 13.1835 13.8121C12.9591 13.1771 13.2924 12.4809 13.9273 12.2571L34.6461 4.94463C34.9085 4.85179 35.1948 4.85179 35.4566 4.94463L56.1753 12.2571C56.8103 12.4809 57.1436 13.1771 56.9192 13.8121C56.7425 14.3126 56.2723 14.6256 55.7701 14.6256Z" fill="#B6AEAF"/>
<path d="M35.0513 7.3125C33.0351 7.3125 31.395 5.67242 31.395 3.65625C31.395 1.64008 33.0351 0 35.0513 0C37.0674 0 38.7075 1.64008 38.7075 3.65625C38.7075 5.67242 37.0674 7.3125 35.0513 7.3125ZM35.0513 2.4375C34.3794 2.4375 33.8325 2.98439 33.8325 3.65625C33.8325 4.32811 34.3794 4.875 35.0513 4.875C35.7231 4.875 36.27 4.32811 36.27 3.65625C36.27 2.98439 35.7231 2.4375 35.0513 2.4375Z" fill="#8B7E7F"/>
<path d="M61.8638 12.1875H8.23877C7.56572 12.1875 7.02002 12.7332 7.02002 13.4062V32.9062C7.02002 33.5793 7.56572 34.125 8.23877 34.125H61.8638C62.5368 34.125 63.0825 33.5793 63.0825 32.9062V13.4062C63.0825 12.7332 62.5368 12.1875 61.8638 12.1875Z" fill="#FF8660"/>
<path d="M11.895 31.6875C11.222 31.6875 10.6763 31.1418 10.6763 30.4688V12.1875H8.23877C7.56572 12.1875 7.02002 12.7332 7.02002 13.4062V32.9062C7.02002 33.5793 7.56572 34.125 8.23877 34.125H61.8638C62.5368 34.125 63.0825 33.5793 63.0825 32.9062V31.6875H11.895Z" fill="#FF6838"/>
<path d="M17.9888 31.6875C17.3157 31.6875 16.77 31.1418 16.77 30.4688V15.8438C16.77 15.1707 17.3157 14.625 17.9888 14.625C18.6618 14.625 19.2075 15.1707 19.2075 15.8438V30.4688C19.2075 31.1418 18.6618 31.6875 17.9888 31.6875Z" fill="#FFC3AF"/>
<path d="M22.8638 31.6875C22.1907 31.6875 21.645 31.1418 21.645 30.4688V15.8438C21.645 15.1707 22.1907 14.625 22.8638 14.625C23.5368 14.625 24.0825 15.1707 24.0825 15.8438V30.4688C24.0825 31.1418 23.5368 31.6875 22.8638 31.6875Z" fill="#FFC3AF"/>
<path d="M27.7388 31.6875C27.0657 31.6875 26.52 31.1418 26.52 30.4688V15.8438C26.52 15.1707 27.0657 14.625 27.7388 14.625C28.4118 14.625 28.9575 15.1707 28.9575 15.8438V30.4688C28.9575 31.1418 28.4118 31.6875 27.7388 31.6875Z" fill="#FFC3AF"/>
<path d="M32.6138 31.6875C31.9407 31.6875 31.395 31.1418 31.395 30.4688V15.8438C31.395 15.1707 31.9407 14.625 32.6138 14.625C33.2868 14.625 33.8325 15.1707 33.8325 15.8438V30.4688C33.8325 31.1418 33.2868 31.6875 32.6138 31.6875Z" fill="#FFC3AF"/>
<path d="M37.4888 31.6875C36.8157 31.6875 36.27 31.1418 36.27 30.4688V15.8438C36.27 15.1707 36.8157 14.625 37.4888 14.625C38.1618 14.625 38.7075 15.1707 38.7075 15.8438V30.4688C38.7075 31.1418 38.1618 31.6875 37.4888 31.6875Z" fill="#FFC3AF"/>
<path d="M42.3638 31.6875C41.6907 31.6875 41.145 31.1418 41.145 30.4688V15.8438C41.145 15.1707 41.6907 14.625 42.3638 14.625C43.0368 14.625 43.5825 15.1707 43.5825 15.8438V30.4688C43.5825 31.1418 43.0368 31.6875 42.3638 31.6875Z" fill="#FFC3AF"/>
<path d="M47.2388 31.6875C46.5657 31.6875 46.02 31.1418 46.02 30.4688V15.8438C46.02 15.1707 46.5657 14.625 47.2388 14.625C47.9118 14.625 48.4575 15.1707 48.4575 15.8438V30.4688C48.4575 31.1418 47.9118 31.6875 47.2388 31.6875Z" fill="#FFC3AF"/>
<path d="M52.1138 31.6875C51.4407 31.6875 50.895 31.1418 50.895 30.4688V15.8438C50.895 15.1707 51.4407 14.625 52.1138 14.625C52.7868 14.625 53.3325 15.1707 53.3325 15.8438V30.4688C53.3325 31.1418 52.7868 31.6875 52.1138 31.6875Z" fill="#FFC3AF"/>
<path d="M58.2075 19.5C57.5345 19.5 56.9888 18.9543 56.9888 18.2812V17.0625C56.3157 17.0625 55.77 16.5168 55.77 15.8438C55.77 15.1707 56.3157 14.625 56.9888 14.625H58.2075C58.8806 14.625 59.4263 15.1707 59.4263 15.8438V18.2812C59.4263 18.9543 58.8806 19.5 58.2075 19.5Z" fill="#FFC3AF"/>
<path d="M11.895 19.5C11.222 19.5 10.6763 18.9543 10.6763 18.2812V15.8438C10.6763 15.1707 11.222 14.625 11.895 14.625H13.1138C13.7868 14.625 14.3325 15.1707 14.3325 15.8438C14.3325 16.5168 13.7868 17.0625 13.1138 17.0625V18.2812C13.1138 18.9543 12.5681 19.5 11.895 19.5Z" fill="#FFC3AF"/>
<path d="M58.2075 31.6875H56.9888C56.3157 31.6875 55.77 31.1418 55.77 30.4688C55.77 29.7957 56.3157 29.25 56.9888 29.25V28.0312C56.9888 27.3582 57.5345 26.8125 58.2075 26.8125C58.8806 26.8125 59.4263 27.3582 59.4263 28.0312V30.4688C59.4263 31.1418 58.8806 31.6875 58.2075 31.6875Z" fill="#FFC3AF"/>
<path d="M13.1138 31.6875H11.895C11.222 31.6875 10.6763 31.1418 10.6763 30.4688V28.0312C10.6763 27.3582 11.222 26.8125 11.895 26.8125C12.5681 26.8125 13.1138 27.3582 13.1138 28.0312V29.25C13.7868 29.25 14.3325 29.7957 14.3325 30.4688C14.3325 31.1418 13.7868 31.6875 13.1138 31.6875Z" fill="#FFC3AF"/>
</svg>
