<svg width="150" height="100" viewBox="0 0 150 100" fill="none" xmlns="http://www.w3.org/2000/svg">
<path d="M30.7575 58.6677C30.7575 58.202 30.6819 57.7618 30.5304 57.348C30.3792 56.9338 30.1739 56.5716 29.9145 56.2611C29.655 55.9505 29.3525 55.7048 29.0067 55.5236C28.6607 55.3424 28.2933 55.2517 27.9042 55.2517H20.2687C19.8797 55.2517 19.5122 55.3424 19.1664 55.5236C18.8207 55.7048 18.5179 55.9505 18.2585 56.2611C17.9992 56.5716 17.7938 56.9338 17.6425 57.348C17.4913 57.7618 17.4156 58.202 17.4156 58.6677C17.4156 59.1337 17.4886 59.5768 17.6345 59.997C17.7804 60.4177 17.983 60.7832 18.2424 61.0938C18.5017 61.4044 18.8044 61.65 19.1502 61.8312C19.496 62.0124 19.869 62.1031 20.2687 62.1031H27.9042C28.2933 62.1031 28.6607 62.0124 29.0067 61.8312C29.3525 61.65 29.655 61.4044 29.9145 61.0938C30.1739 60.7832 30.3792 60.4177 30.5304 59.997C30.6819 59.5768 30.7575 59.1337 30.7575 58.6677ZM27.9042 52.3599C28.6284 52.3599 29.3092 52.5248 29.9468 52.8548C30.5846 53.1847 31.1439 53.6376 31.6247 54.2132C32.1057 54.789 32.484 55.4587 32.7595 56.2221C33.0351 56.9856 33.1729 57.8009 33.1729 58.6677C33.1729 59.5346 33.0351 60.3528 32.7595 61.1229C32.484 61.8926 32.1057 62.5625 31.6247 63.1316C31.1439 63.701 30.5846 64.1539 29.9468 64.4905C29.3092 64.8267 28.6284 64.995 27.9042 64.995H20.2687C19.5339 64.995 18.8476 64.83 18.2099 64.5001C17.5723 64.1701 17.0157 63.7172 16.5402 63.1414C16.0646 62.5658 15.6891 61.8962 15.4134 61.1327C15.1379 60.3692 15 59.5477 15 58.6677C15 57.8009 15.1379 56.9856 15.4134 56.2221C15.6891 55.4587 16.0673 54.789 16.5483 54.2132C17.0292 53.6376 17.5885 53.1847 18.2261 52.8548C18.8637 52.5248 19.5446 52.3599 20.2687 52.3599H27.9042ZM49.3842 57.3287C49.3842 57.0439 49.3383 56.7755 49.2463 56.523C49.1546 56.2706 49.0302 56.051 48.8736 55.8631C48.7169 55.6757 48.5331 55.5269 48.3223 55.4169C48.1117 55.3068 47.8873 55.2517 47.6497 55.2517H36.8528V59.3856H47.6497C47.8873 59.3856 48.1117 59.3307 48.3223 59.2211C48.5331 59.1111 48.7169 58.9621 48.8736 58.7745C49.0302 58.5868 49.1546 58.37 49.2463 58.1244C49.3383 57.8783 49.3842 57.613 49.3842 57.3287ZM36.8528 62.2779V64.995H34.4374V52.3599H47.6497C48.2116 52.3599 48.7466 52.4924 49.2546 52.7576C49.7626 53.0231 50.2029 53.3788 50.5757 53.8252C50.9485 54.2714 51.2459 54.799 51.4674 55.4071C51.6889 56.0149 51.7996 56.6555 51.7996 57.3287C51.7996 58.0143 51.6889 58.6515 51.4674 59.2402C51.2459 59.8287 50.9485 60.3465 50.5757 60.793C50.2029 61.2392 49.7626 61.5918 49.2546 61.8508C48.7466 62.1096 48.2116 62.2519 47.6497 62.2779H36.8528ZM69.859 52.3792V55.271H62.6126V64.995H60.197V55.271H52.9505V52.3792H69.859ZM73.6198 52.3792V64.995H71.2044V52.3792H73.6198ZM96.4941 52.3792V64.995H94.0785V55.0189L86.3297 64.995L78.5807 55.0189V64.995H76.1651V52.3792H79.7479L86.3297 61.0744L92.9113 52.3792H96.4941ZM111.457 58.6871L109.252 56.2997L107.064 58.6871L109.252 61.0938L111.457 58.6871ZM120.811 64.995H117.228L113.24 60.6473L109.252 64.995L105.28 60.6473L101.293 64.995H97.7098L109.252 52.3792L120.811 64.995ZM135 64.995H121.994V52.3792H124.41V62.1031H135V64.995Z" fill="#0B0B66"/>
<path d="M30.9668 78.3803V73.9261H31.773V77.794H34.9907V78.3803H30.9668ZM37.6332 76.1484C37.6332 76.6839 37.7724 77.1073 38.0521 77.4186C38.3305 77.7299 38.707 77.886 39.1803 77.886C39.6512 77.886 40.0265 77.7299 40.3074 77.4176C40.587 77.1053 40.7274 76.6839 40.7274 76.1541C40.7274 75.6235 40.587 75.2001 40.3074 74.8859C40.0265 74.5717 39.6512 74.4146 39.1803 74.4146C38.7094 74.4146 38.3341 74.5708 38.0533 74.883C37.7737 75.1953 37.6332 75.6177 37.6332 76.1484ZM39.1803 73.8284C39.5374 73.8284 39.8595 73.8811 40.1488 73.9874C40.4369 74.0928 40.6863 74.248 40.8969 74.4539C41.1209 74.679 41.2891 74.9329 41.4017 75.2164C41.5143 75.499 41.57 75.8122 41.57 76.1541C41.57 76.5009 41.5143 76.8132 41.4029 77.0929C41.2928 77.3726 41.1233 77.6255 40.8969 77.8525C40.6911 78.0546 40.4429 78.2079 40.1524 78.3132C39.8607 78.4195 39.5399 78.4722 39.1876 78.4722C38.8353 78.4722 38.5145 78.4195 38.2252 78.3132C37.9359 78.2079 37.6877 78.0546 37.4819 77.8525C37.2531 77.6235 37.0812 77.3687 36.9686 77.0862C36.8549 76.8036 36.7979 76.4913 36.7979 76.1484C36.7979 75.8083 36.8549 75.4961 36.9686 75.2106C37.0812 74.9252 37.2507 74.6713 37.4746 74.4482C37.6829 74.2451 37.931 74.0899 38.2179 73.9855C38.5048 73.8811 38.8256 73.8284 39.1803 73.8284ZM48.7824 76.0641L48.786 76.0814C48.7933 76.1896 48.7969 76.272 48.7969 76.3275C48.7969 76.5248 48.7764 76.7059 48.7352 76.8726C48.6941 77.0392 48.6323 77.1887 48.5524 77.3218C48.3163 77.703 48.0137 77.9904 47.6457 78.183C47.2789 78.3755 46.8491 78.4722 46.3565 78.4722C45.9909 78.4722 45.6519 78.4167 45.3396 78.3065C45.0272 78.1964 44.7561 78.0364 44.5273 77.8266C44.2888 77.6101 44.1096 77.362 43.991 77.0843C43.8736 76.8065 43.8143 76.4952 43.8143 76.1484C43.8143 75.8083 43.8736 75.497 43.9934 75.2164C44.1121 74.9348 44.29 74.6838 44.5261 74.4654C44.7513 74.2595 45.0188 74.1024 45.3311 73.9922C45.6434 73.883 45.9824 73.8284 46.348 73.8284C46.7947 73.8284 47.1833 73.8993 47.5125 74.0411C47.843 74.1838 48.1323 74.4051 48.3829 74.7058L47.7692 75.0986C47.5985 74.8668 47.3988 74.6953 47.17 74.5832C46.9399 74.4712 46.6712 74.4146 46.3637 74.4146C45.8456 74.4146 45.4316 74.5717 45.1217 74.885C44.8118 75.1982 44.6568 75.6196 44.6568 76.1484C44.6568 76.6705 44.8142 77.091 45.1289 77.409C45.4437 77.727 45.8553 77.886 46.3637 77.886C46.8092 77.886 47.176 77.7701 47.4665 77.5373C47.7559 77.3046 47.9108 76.999 47.9326 76.6216H46.509V76.0641H48.7824ZM52.322 78.3803H51.5157V73.9261H52.322V78.3803ZM55.0808 77.3323L55.7732 77.1446C55.8604 77.3879 56.002 77.5737 56.1981 77.7011C56.3942 77.8285 56.6351 77.8918 56.9208 77.8918C57.2005 77.8918 57.422 77.8257 57.5878 77.6935C57.7537 77.5622 57.836 77.385 57.836 77.1618C57.836 76.9827 57.7682 76.8352 57.6338 76.7212C57.4995 76.6072 57.2005 76.4741 56.7368 76.3227C56.2005 76.1484 55.8216 75.9626 55.6025 75.7643C55.3822 75.566 55.272 75.3189 55.272 75.0239C55.272 74.6761 55.4185 74.3897 55.7102 74.1656C56.002 73.9405 56.3797 73.8284 56.8409 73.8284C57.1532 73.8284 57.4377 73.8849 57.6944 73.997C57.951 74.1091 58.1847 74.2786 58.3953 74.5066L57.8578 74.9261C57.6944 74.748 57.5285 74.6158 57.3615 74.5286C57.1932 74.4414 57.0201 74.3974 56.8397 74.3974C56.6109 74.3974 56.4257 74.4491 56.2841 74.5535C56.1424 74.657 56.071 74.792 56.071 74.9587C56.071 75.0919 56.117 75.2068 56.209 75.3045C56.301 75.4012 56.4487 75.4903 56.6521 75.5708C56.8349 75.6426 57.0491 75.7183 57.2973 75.7997C57.5455 75.8812 57.6968 75.9348 57.7488 75.9616C58.0842 76.1331 58.3154 76.3064 58.4437 76.4818C58.5708 76.6561 58.635 76.8793 58.635 77.1503C58.635 77.5402 58.4776 77.8573 58.1629 78.1034C57.8493 78.3496 57.4426 78.4722 56.9426 78.4722C56.4608 78.4722 56.0553 78.3717 55.7248 78.1695C55.3955 77.9674 55.18 77.6887 55.0808 77.3323ZM63.5812 74.5123V78.3803H62.775V74.5123H60.9882V73.9261H65.3608V74.5123H63.5812ZM68.8761 78.3803H68.0699V73.9261H68.8761V78.3803ZM75.8004 78.068C75.585 78.205 75.3465 78.3065 75.0838 78.3726C74.8211 78.4387 74.5269 78.4722 74.2013 78.4722C73.8297 78.4722 73.4895 78.4205 73.1796 78.318C72.8697 78.2146 72.6033 78.0651 72.3782 77.8688C72.1324 77.6504 71.9472 77.3975 71.8237 77.1111C71.6991 76.8247 71.6373 76.5047 71.6373 76.1484C71.6373 75.7988 71.6991 75.4779 71.8237 75.1867C71.9472 74.8945 72.13 74.6397 72.3709 74.4204C72.584 74.2259 72.8418 74.0784 73.1445 73.9788C73.4471 73.8782 73.7849 73.8284 74.1577 73.8284C74.4543 73.8284 74.7267 73.861 74.9773 73.9261C75.2278 73.9922 75.4603 74.0909 75.6758 74.224V74.9894C75.4699 74.7911 75.2472 74.6455 75.0087 74.5535C74.7703 74.4606 74.5003 74.4146 74.2001 74.4146C73.682 74.4146 73.2667 74.5727 72.952 74.8878C72.6373 75.203 72.4799 75.6235 72.4799 76.1484C72.4799 76.6877 72.6397 77.112 72.9605 77.4214C73.2813 77.7308 73.7171 77.886 74.2679 77.886C74.5729 77.886 74.8526 77.8391 75.108 77.7462C75.3634 77.6523 75.5946 77.5115 75.8004 77.3228V78.068ZM77.9915 77.3323L78.6839 77.1446C78.7711 77.3879 78.9127 77.5737 79.1088 77.7011C79.3049 77.8285 79.5458 77.8918 79.8315 77.8918C80.1112 77.8918 80.3327 77.8257 80.4985 77.6935C80.6644 77.5622 80.7467 77.385 80.7467 77.1618C80.7467 76.9827 80.6789 76.8352 80.5445 76.7212C80.4102 76.6072 80.1112 76.4741 79.6475 76.3227C79.1112 76.1484 78.7323 75.9626 78.5132 75.7643C78.2929 75.566 78.1827 75.3189 78.1827 75.0239C78.1827 74.6761 78.3292 74.3897 78.621 74.1656C78.9127 73.9405 79.2904 73.8284 79.7516 73.8284C80.0639 73.8284 80.3484 73.8849 80.6051 73.997C80.8617 74.1091 81.0954 74.2786 81.306 74.5066L80.7685 74.9261C80.6051 74.748 80.4392 74.6158 80.2722 74.5286C80.1039 74.4414 79.9308 74.3974 79.7504 74.3974C79.5216 74.3974 79.3364 74.4491 79.1948 74.5535C79.0531 74.657 78.9817 74.792 78.9817 74.9587C78.9817 75.0919 79.0277 75.2068 79.1197 75.3045C79.2117 75.4012 79.3594 75.4903 79.5628 75.5708C79.7456 75.6426 79.9598 75.7183 80.208 75.7997C80.4562 75.8812 80.6075 75.9348 80.6595 75.9616C80.9949 76.1331 81.2261 76.3064 81.3544 76.4818C81.4815 76.6561 81.5457 76.8793 81.5457 77.1503C81.5457 77.5402 81.3883 77.8573 81.0736 78.1034C80.76 78.3496 80.3533 78.4722 79.8533 78.4722C79.3715 78.4722 78.966 78.3717 78.6355 78.1695C78.3062 77.9674 78.0907 77.6887 77.9915 77.3323ZM90.9021 76.0641L90.9057 76.0814C90.913 76.1896 90.9166 76.272 90.9166 76.3275C90.9166 76.5248 90.8961 76.7059 90.8549 76.8726C90.8138 77.0392 90.752 77.1887 90.6721 77.3218C90.436 77.703 90.1334 77.9904 89.7654 78.183C89.3986 78.3755 88.9688 78.4722 88.4762 78.4722C88.1106 78.4722 87.7716 78.4167 87.4593 78.3065C87.1469 78.1964 86.8758 78.0364 86.647 77.8266C86.4085 77.6101 86.2294 77.362 86.1107 77.0843C85.9933 76.8065 85.934 76.4952 85.934 76.1484C85.934 75.8083 85.9933 75.497 86.1131 75.2164C86.2318 74.9348 86.4097 74.6838 86.6458 74.4654C86.871 74.2595 87.1385 74.1024 87.4508 73.9922C87.7631 73.883 88.1021 73.8284 88.4677 73.8284C88.9144 73.8284 89.303 73.8993 89.6322 74.0411C89.9627 74.1838 90.252 74.4051 90.5026 74.7058L89.8889 75.0986C89.7182 74.8668 89.5185 74.6953 89.2897 74.5832C89.0596 74.4712 88.7909 74.4146 88.4834 74.4146C87.9653 74.4146 87.5513 74.5717 87.2414 74.885C86.9315 75.1982 86.7765 75.6196 86.7765 76.1484C86.7765 76.6705 86.9339 77.091 87.2486 77.409C87.5634 77.727 87.975 77.886 88.4834 77.886C88.9289 77.886 89.2957 77.7701 89.5862 77.5373C89.8756 77.3046 90.0305 76.999 90.0523 76.6216H88.6287V76.0641H90.9021ZM94.4417 75.9549H95.0942C95.7322 75.9549 96.1728 75.8993 96.4161 75.7882C96.6594 75.6771 96.7805 75.4875 96.7805 75.2202C96.7805 74.9443 96.6691 74.7518 96.4452 74.6445C96.2224 74.5372 95.7721 74.4836 95.0942 74.4836H94.4417V75.9549ZM95.5506 73.9261C96.2345 73.9261 96.749 74.0353 97.0965 74.2547C97.4427 74.474 97.6158 74.7997 97.6158 75.2317C97.6158 75.612 97.4814 75.908 97.2115 76.1206C96.9415 76.3333 96.536 76.4616 95.9936 76.5067L98.1533 78.3803H97.1074L94.9804 76.5067H94.4417V78.3803H93.6355V73.9261H95.5506ZM100.964 76.1484C100.964 76.6839 101.103 77.1073 101.383 77.4186C101.661 77.7299 102.038 77.886 102.511 77.886C102.982 77.886 103.357 77.7299 103.638 77.4176C103.918 77.1053 104.058 76.6839 104.058 76.1541C104.058 75.6235 103.918 75.2001 103.638 74.8859C103.357 74.5717 102.982 74.4146 102.511 74.4146C102.04 74.4146 101.665 74.5708 101.384 74.883C101.105 75.1953 100.964 75.6177 100.964 76.1484ZM102.511 73.8284C102.868 73.8284 103.19 73.8811 103.48 73.9874C103.768 74.0928 104.017 74.248 104.228 74.4539C104.452 74.679 104.62 74.9329 104.733 75.2164C104.845 75.499 104.901 75.8122 104.901 76.1541C104.901 76.5009 104.845 76.8132 104.734 77.0929C104.624 77.3726 104.454 77.6255 104.228 77.8525C104.022 78.0546 103.774 78.2079 103.483 78.3132C103.191 78.4195 102.871 78.4722 102.519 78.4722C102.166 78.4722 101.845 78.4195 101.556 78.3132C101.267 78.2079 101.019 78.0546 100.813 77.8525C100.584 77.6235 100.412 77.3687 100.299 77.0862C100.186 76.8036 100.129 76.4913 100.129 76.1484C100.129 75.8083 100.186 75.4961 100.299 75.2106C100.412 74.9252 100.582 74.6713 100.805 74.4482C101.014 74.2451 101.262 74.0899 101.549 73.9855C101.836 73.8811 102.156 73.8284 102.511 73.8284ZM107.639 73.9261H108.445V76.4157C108.445 76.9051 108.547 77.273 108.749 77.5182C108.951 77.7634 109.254 77.886 109.658 77.886C110.065 77.886 110.369 77.7644 110.57 77.521C110.771 77.2777 110.871 76.909 110.871 76.4157V73.9261H111.677V76.4214C111.677 77.091 111.506 77.5996 111.163 77.9492C110.82 78.2979 110.318 78.4722 109.658 78.4722C108.996 78.4722 108.494 78.2979 108.152 77.9502C107.81 77.6025 107.639 77.0929 107.639 76.4214V73.9261ZM115.724 76.5584V78.3803H114.918V73.9261H116.917C117.597 73.9261 118.116 74.0353 118.476 74.2547C118.835 74.4731 119.015 74.7911 119.015 75.2087C119.015 75.6484 118.828 75.9827 118.454 76.2135C118.081 76.4434 117.534 76.5584 116.814 76.5584H115.724ZM115.724 76.0009H116.445C117.109 76.0009 117.564 75.9425 117.81 75.8266C118.056 75.7106 118.179 75.5114 118.179 75.2269C118.179 74.9482 118.064 74.7547 117.833 74.6464C117.603 74.5382 117.139 74.4836 116.445 74.4836H115.724V76.0009Z" fill="#666666"/>
<path d="M16.3032 69.283H135V69.8388H16.3032V69.283Z" fill="#666666"/>
<path d="M75.0003 21.5277C81.2235 21.5277 86.2683 26.5726 86.2683 32.7957C86.2683 33.0534 86.2588 33.3089 86.2419 33.5623C83.1406 32.1683 79.239 31.3375 75.0003 31.3375C70.7617 31.3375 66.8601 32.1683 63.7588 33.5623C63.7419 33.3089 63.7324 33.0534 63.7324 32.7957C63.7324 26.5726 68.7772 21.5277 75.0003 21.5277Z" fill="#00CCFF"/>
<path d="M86.2419 33.5623C85.8477 39.4278 80.9658 44.0637 75.0003 44.0637C69.0349 44.0637 64.153 39.4278 63.7588 33.5623C66.8601 32.1683 70.7617 31.3375 75.0003 31.3375C79.239 31.3375 83.1406 32.1683 86.2419 33.5623Z" fill="white"/>
<path d="M86.232 33.6824C85.7796 39.4907 80.9246 44.0637 75 44.0637C71.0426 44.0637 67.5628 42.023 65.5527 38.9371C68.6295 35.6162 74.7044 33.3558 81.6963 33.3558C83.262 33.3558 84.7816 33.4692 86.232 33.6824Z" fill="#0B0B66"/>
</svg>
