<svg width="30" height="37" viewBox="0 0 30 37" fill="none" xmlns="http://www.w3.org/2000/svg">
<path d="M0.046937 4.82617L0 30.806C0 30.806 0.344205 34.2532 3.39511 35.7888C3.39511 35.7888 6.25826 37.3088 6.52424 36.3216L6.4773 10.9529C6.4773 10.9529 6.27391 8.14808 3.34817 6.42445C3.28559 6.39311 3.223 6.3461 3.16042 6.31476L0.046937 4.82617Z" fill="white"/>
<path d="M11.4995 0V25.9798C11.4995 25.9798 11.8437 29.4271 14.9103 30.947C14.9103 30.947 17.7891 32.4512 18.055 31.4797L17.9455 6.11105C17.9455 6.11105 17.7421 3.30623 14.8007 1.58261C14.7382 1.55127 14.6756 1.50426 14.613 1.47292L11.4995 0Z" fill="white"/>
<path d="M22.9991 4.82617V30.806C22.9991 30.806 23.3434 34.2532 26.4099 35.7732C26.4099 35.7732 29.2887 37.2774 29.5547 36.3059L29.4452 10.9529C29.4452 10.9529 29.2418 8.14808 26.3004 6.42445C26.2378 6.39311 26.1752 6.3461 26.1126 6.31476L22.9991 4.82617Z" fill="white"/>
</svg>
