<svg width="140" height="37" viewBox="0 0 140 37" fill="none" xmlns="http://www.w3.org/2000/svg">
<path d="M0.046937 4.82617L0 30.806C0 30.806 0.344205 34.2532 3.39511 35.7888C3.39511 35.7888 6.25826 37.3088 6.52424 36.3216L6.4773 10.9529C6.4773 10.9529 6.27391 8.14808 3.34817 6.42445C3.28559 6.39311 3.223 6.3461 3.16042 6.31476L0.046937 4.82617Z" fill="white"/>
<path d="M11.4995 0V25.9798C11.4995 25.9798 11.8437 29.4271 14.9103 30.947C14.9103 30.947 17.7891 32.4512 18.055 31.4797L17.9455 6.11105C17.9455 6.11105 17.7421 3.30623 14.8007 1.58261C14.7382 1.55127 14.6756 1.50426 14.613 1.47292L11.4995 0Z" fill="white"/>
<path d="M22.9991 4.82617V30.806C22.9991 30.806 23.3434 34.2532 26.4099 35.7732C26.4099 35.7732 29.2887 37.2774 29.5547 36.3059L29.4452 10.9529C29.4452 10.9529 29.2418 8.14808 26.3004 6.42445C26.2378 6.39311 26.1752 6.3461 26.1126 6.31476L22.9991 4.82617Z" fill="white"/>
<path d="M49.0987 26.0896V15.8262L44.7023 20.2293C44.3737 20.5584 43.9826 20.715 43.5289 20.715C43.0595 20.715 42.6527 20.5584 42.3241 20.2293L37.9277 15.8262V26.0896C37.9277 26.5597 37.7713 26.9515 37.4584 27.2805C37.1454 27.6096 36.7386 27.7506 36.2693 27.7506C35.8156 27.7506 35.4244 27.5939 35.0959 27.2805C34.7673 26.9671 34.6108 26.5597 34.6108 26.0896V11.7835C34.6108 11.4545 34.7047 11.1567 34.8925 10.8747C35.0802 10.5926 35.3305 10.3889 35.6435 10.2636C35.8156 10.1852 36.0502 10.1382 36.3006 10.1382C36.7543 10.1382 37.1454 10.2949 37.4427 10.6083L43.5289 16.7037L49.5837 10.6083C49.9123 10.2793 50.3034 10.1226 50.7884 10.1226C50.9762 10.1226 51.1952 10.1696 51.3986 10.2479C51.7272 10.3733 51.9775 10.5926 52.1496 10.8747C52.3217 11.1567 52.4156 11.4701 52.4156 11.7992V26.0896C52.4156 26.5597 52.2591 26.9515 51.9462 27.2805C51.6333 27.6096 51.2265 27.7506 50.7572 27.7506C50.3034 27.7506 49.9123 27.5939 49.5837 27.2805C49.2552 26.9515 49.0987 26.5597 49.0987 26.0896Z" fill="white"/>
<path d="M59.0966 22.4703C59.0966 22.8307 59.2061 23.1754 59.4095 23.5201C59.5659 23.7865 59.8006 23.9745 60.0822 24.1156C60.3639 24.2566 60.6611 24.3193 60.9428 24.3193H69.3288C69.7982 24.3193 70.205 24.4916 70.5335 24.8207C70.8621 25.1497 71.0342 25.5571 71.0342 26.0272C71.0342 26.4973 70.8621 26.9047 70.5335 27.2338C70.205 27.5628 69.7982 27.7352 69.3288 27.7352H60.9428C60.3952 27.7352 59.8632 27.6568 59.3782 27.4845C58.8932 27.3278 58.4394 27.1084 58.0014 26.8264C57.1409 26.2623 56.4994 25.4788 56.0926 24.5073C55.811 23.8492 55.6702 23.1754 55.6702 22.4546V15.3094C55.6702 14.5886 55.811 13.8991 56.0926 13.2567C56.4994 12.2852 57.1409 11.5017 58.0014 10.9376C58.4238 10.6556 58.8775 10.4362 59.3782 10.2795C59.8632 10.1228 60.3952 10.0288 60.9428 10.0288H69.3288C69.7982 10.0288 70.205 10.2012 70.5335 10.5302C70.8621 10.8593 71.0342 11.2667 71.0342 11.7368C71.0342 12.2069 70.8621 12.6143 70.5335 12.9433C70.205 13.2724 69.7982 13.4447 69.3288 13.4447H60.9428C60.6455 13.4447 60.3639 13.5074 60.0822 13.6484C59.8006 13.7895 59.5659 13.9932 59.4095 14.2439C59.1904 14.5886 59.0966 14.9333 59.0966 15.2937V17.174H69.235C69.7043 17.174 70.1111 17.3307 70.4397 17.6598C70.7682 17.9888 70.9403 18.3806 70.9403 18.8663C70.9403 19.3364 70.7682 19.7438 70.4397 20.0729C70.1111 20.4019 69.7043 20.5743 69.235 20.5743H59.0966V22.4703Z" fill="white"/>
<path d="M83.5663 27.7504H75.9469C75.4931 27.7504 75.0863 27.578 74.7421 27.2333C74.3979 26.8886 74.2258 26.4969 74.2258 26.0268V11.7363C74.2258 11.2819 74.3979 10.8745 74.7421 10.5298C75.0863 10.1851 75.4775 10.0127 75.9469 10.0127H83.5663C84.4737 10.0127 85.3499 10.1537 86.1791 10.4201C87.0083 10.6865 87.7906 11.0625 88.4947 11.5326C89.9341 12.4885 90.998 13.789 91.702 15.4186C92.1557 16.5155 92.3904 17.6593 92.3904 18.8659C92.3904 19.7904 92.2653 20.6835 91.9993 21.514C91.7333 22.3445 91.3735 23.1123 90.9041 23.8174C90.4347 24.5382 89.8558 25.165 89.1987 25.7134C88.526 26.2618 87.7906 26.7006 86.9927 27.0296C86.4764 27.2647 85.9288 27.437 85.3499 27.5624C84.7554 27.6877 84.1608 27.7504 83.5663 27.7504ZM77.6522 24.3188H83.5663C84.1295 24.3188 84.6771 24.2405 85.1778 24.0681C85.6784 23.8957 86.1635 23.6764 86.6015 23.3787C87.024 23.0809 87.4151 22.7362 87.7437 22.3288C88.0879 21.9214 88.3695 21.467 88.5729 20.9812C88.8545 20.3231 88.9953 19.6337 88.9953 18.8815C88.9953 18.3175 88.9171 17.769 88.745 17.2519C88.5885 16.7348 88.3539 16.2648 88.0566 15.8417C87.4464 14.9485 86.6485 14.2904 85.6628 13.8517C85.0057 13.5696 84.3173 13.4286 83.5663 13.4286H77.6522V24.3188V24.3188Z" fill="white"/>
<path d="M94.4712 26.0428V11.768C94.4712 11.2979 94.6433 10.8905 94.9719 10.5615C95.3004 10.2324 95.7072 10.0601 96.1766 10.0601C96.6459 10.0601 97.0527 10.2324 97.3813 10.5615C97.7098 10.8905 97.8663 11.2979 97.8663 11.768V26.0428C97.8663 26.5129 97.7098 26.9203 97.3813 27.2493C97.0527 27.5784 96.6616 27.7508 96.1766 27.7508C95.7072 27.7508 95.3004 27.5784 94.9719 27.2493C94.6276 26.9203 94.4712 26.5129 94.4712 26.0428Z" fill="white"/>
<path d="M101.214 18.8659V11.7207C101.214 11.2506 101.386 10.8432 101.715 10.5141C102.043 10.1851 102.45 10.0127 102.92 10.0127C103.389 10.0127 103.796 10.1851 104.124 10.5141C104.453 10.8432 104.625 11.2506 104.625 11.7207V18.8659C104.625 19.618 104.766 20.3231 105.047 20.9812C105.329 21.6394 105.72 22.2191 106.221 22.7205C106.722 23.222 107.3 23.6137 107.958 23.8957C108.615 24.1778 109.319 24.3188 110.07 24.3188C110.821 24.3188 111.525 24.1778 112.197 23.8957C112.87 23.6137 113.449 23.222 113.934 22.7205C114.419 22.2191 114.81 21.6394 115.108 20.9812C115.405 20.3231 115.546 19.618 115.546 18.8659V11.7207C115.546 11.2506 115.702 10.8432 116.031 10.5141C116.359 10.1851 116.75 10.0127 117.235 10.0127C117.705 10.0127 118.112 10.1851 118.44 10.5141C118.769 10.8432 118.941 11.2506 118.941 11.7207V18.8659C118.941 20.0881 118.706 21.2476 118.237 22.3131C117.767 23.3787 117.142 24.3345 116.344 25.1336C115.546 25.9484 114.607 26.5752 113.527 27.0453C112.448 27.5154 111.29 27.7504 110.07 27.7504C108.849 27.7504 107.692 27.5154 106.628 27.0453C105.548 26.5752 104.609 25.9484 103.811 25.1336C102.998 24.3188 102.372 23.3787 101.903 22.3131C101.449 21.232 101.214 20.0881 101.214 18.8659Z" fill="white"/>
<path d="M136.683 26.0896V15.8262L132.287 20.2293C131.958 20.5584 131.567 20.715 131.113 20.715C130.644 20.715 130.237 20.5584 129.909 20.2293L125.512 15.8262V26.0896C125.512 26.5597 125.356 26.9515 125.043 27.2805C124.73 27.6096 124.323 27.7506 123.854 27.7506C123.4 27.7506 123.009 27.5939 122.68 27.2805C122.352 26.9671 122.195 26.5597 122.195 26.0896V11.7835C122.195 11.4545 122.289 11.1567 122.477 10.8747C122.665 10.5926 122.915 10.3889 123.228 10.2636C123.4 10.1852 123.635 10.1382 123.885 10.1382C124.339 10.1382 124.73 10.2949 125.027 10.6083L131.113 16.7037L137.168 10.6083C137.497 10.2793 137.888 10.1226 138.373 10.1226C138.561 10.1226 138.78 10.1696 138.983 10.2479C139.312 10.3733 139.562 10.5926 139.734 10.8747C139.906 11.1567 140 11.4701 140 11.7992V26.0896C140 26.5597 139.844 26.9515 139.531 27.2805C139.218 27.5939 138.811 27.7506 138.342 27.7506C137.888 27.7506 137.497 27.5939 137.168 27.2805C136.84 26.9671 136.683 26.5597 136.683 26.0896Z" fill="white"/>
<path d="M37.0831 36.6348C36.7233 36.6348 36.3791 36.5721 36.0662 36.4311C35.7533 36.2901 35.4716 36.102 35.237 35.867C35.0023 35.6163 34.8145 35.3342 34.6894 35.0209C34.5642 34.6918 34.486 34.3471 34.486 33.9553C34.486 33.5793 34.5485 33.2345 34.6894 32.9055C34.8145 32.5764 35.0023 32.2944 35.237 32.0593C35.4716 31.8086 35.7376 31.6206 36.0505 31.4796C36.3634 31.3386 36.7076 31.2759 37.0675 31.2759C37.4117 31.2759 37.709 31.3229 37.9593 31.4169C38.2096 31.5109 38.46 31.6519 38.7103 31.8556C38.7416 31.887 38.7729 31.9027 38.7885 31.934C38.8042 31.9653 38.8198 31.9967 38.8355 32.028C38.8355 32.0593 38.8511 32.0907 38.8511 32.1377C38.8511 32.216 38.8198 32.2944 38.7572 32.3414C38.6946 32.4041 38.6321 32.4354 38.5382 32.4354C38.46 32.4354 38.3661 32.4197 38.2879 32.3571C38.1158 32.216 37.9593 32.1064 37.7716 32.028C37.5995 31.9497 37.3648 31.9183 37.0675 31.9183C36.8015 31.9183 36.5512 31.9653 36.3322 32.075C36.0975 32.1847 35.8941 32.3257 35.722 32.5138C35.5499 32.7018 35.4091 32.9212 35.3152 33.1719C35.2213 33.4226 35.1744 33.689 35.1744 33.971C35.1744 34.2531 35.2213 34.5194 35.3152 34.7701C35.4091 35.0209 35.5499 35.2402 35.722 35.4283C35.8941 35.6163 36.0975 35.7573 36.3322 35.867C36.5668 35.9767 36.8172 36.0237 37.0675 36.0237C37.3022 36.0237 37.5056 35.9767 37.709 35.8983C37.9124 35.82 38.1001 35.7103 38.2879 35.5693C38.3661 35.5066 38.4443 35.4909 38.5225 35.4909C38.6008 35.4909 38.6634 35.5223 38.7259 35.585C38.7729 35.6476 38.8042 35.7103 38.8042 35.82C38.8042 35.867 38.7885 35.914 38.7729 35.9453C38.7572 35.9924 38.7259 36.0237 38.6946 36.055C38.46 36.2431 38.194 36.3841 37.928 36.4938C37.6777 36.5878 37.3804 36.6348 37.0831 36.6348Z" fill="white"/>
<path d="M43.0913 36.5724C42.9974 36.5724 42.9035 36.541 42.8409 36.4784C42.7784 36.4157 42.7471 36.3217 42.7471 36.2277V31.6992C42.7471 31.5895 42.7784 31.5112 42.8409 31.4485C42.9035 31.3858 42.9974 31.3545 43.0913 31.3545H44.296C44.6245 31.3545 44.9218 31.4172 45.1878 31.5582C45.4538 31.6992 45.6415 31.8873 45.798 32.138C45.9388 32.3887 46.017 32.6707 46.017 32.9998C46.017 33.2975 45.9388 33.5795 45.798 33.8146C45.6572 34.0496 45.4538 34.2377 45.1878 34.363C44.9218 34.504 44.6402 34.5667 44.296 34.5667H43.4355V36.2277C43.4355 36.3217 43.4042 36.4157 43.3416 36.4784C43.279 36.541 43.1852 36.5724 43.0913 36.5724ZM43.4355 33.9086H44.296C44.4994 33.9086 44.6871 33.8616 44.8436 33.7989C45 33.7206 45.1252 33.6109 45.2034 33.4699C45.2973 33.3288 45.3442 33.1721 45.3442 32.9841C45.3442 32.7804 45.2973 32.608 45.2034 32.467C45.1096 32.3103 44.9844 32.2006 44.8436 32.1066C44.6871 32.0283 44.515 31.9813 44.296 31.9813H43.4355V33.9086ZM45.8606 36.5724C45.798 36.5724 45.7354 36.5567 45.6885 36.5254C45.6415 36.494 45.5946 36.4627 45.5633 36.4L44.3586 34.457L45.0313 34.269L46.1265 36.0396C46.2048 36.165 46.2204 36.2903 46.1578 36.4C46.0952 36.5097 46.0014 36.5724 45.8606 36.5724Z" fill="white"/>
<path d="M50.1161 36.5724C50.0222 36.5724 49.9283 36.541 49.8657 36.4784C49.8031 36.4157 49.7719 36.3217 49.7719 36.2277V31.6992C49.7719 31.5895 49.8031 31.5112 49.8657 31.4485C49.9283 31.3858 50.0222 31.3545 50.1161 31.3545H53.1357C53.2452 31.3545 53.3234 31.3858 53.386 31.4485C53.4486 31.5112 53.4799 31.5895 53.4799 31.6835C53.4799 31.7776 53.4486 31.8559 53.386 31.9186C53.3234 31.9813 53.2452 32.0126 53.1357 32.0126H50.4603V33.6422H52.3847C52.4942 33.6422 52.5724 33.6736 52.635 33.7362C52.6976 33.7989 52.7289 33.8773 52.7289 33.9713C52.7289 34.0653 52.6976 34.1436 52.635 34.2063C52.5724 34.269 52.4942 34.3003 52.3847 34.3003H50.4603V35.9769H53.1357C53.2452 35.9769 53.3234 36.0083 53.386 36.071C53.4486 36.1336 53.4799 36.212 53.4799 36.306C53.4799 36.4 53.4486 36.4784 53.386 36.541C53.3234 36.6037 53.2452 36.6351 53.1357 36.6351H50.1161V36.5724Z" fill="white"/>
<path d="M57.0469 36.5724C56.9218 36.5724 56.8279 36.5254 56.7653 36.4157C56.7027 36.3061 56.6871 36.1964 56.7497 36.071L58.6272 31.5739C58.6897 31.4172 58.7993 31.3389 58.9557 31.3389C59.1122 31.3389 59.2217 31.4172 59.2843 31.5739L61.1618 36.071C61.2087 36.1964 61.2087 36.3061 61.1461 36.4157C61.0835 36.5098 60.9897 36.5724 60.8489 36.5724C60.7863 36.5724 60.7237 36.5568 60.6611 36.5098C60.5985 36.4784 60.5516 36.4157 60.5359 36.3531L58.8775 32.232H59.0652L57.3599 36.3531C57.3286 36.4314 57.2816 36.4784 57.219 36.5098C57.1721 36.5568 57.1095 36.5724 57.0469 36.5724ZM57.4068 35.4129L57.6728 34.8331H60.2856L60.5516 35.4129H57.4068Z" fill="white"/>
<path d="M63.978 31.9809C63.8841 31.9809 63.8059 31.9495 63.7433 31.8869C63.6807 31.8242 63.6494 31.7458 63.6494 31.6518C63.6494 31.5578 63.6807 31.4794 63.7433 31.4168C63.8059 31.3541 63.8841 31.3228 63.978 31.3228H67.5608C67.6547 31.3228 67.7329 31.3541 67.7955 31.4168C67.8581 31.4794 67.8894 31.5578 67.8894 31.6518C67.8894 31.7458 67.8581 31.8242 67.7955 31.8869C67.7329 31.9495 67.6547 31.9809 67.5608 31.9809H63.978ZM65.7616 36.572C65.6677 36.572 65.5738 36.5407 65.5112 36.478C65.4487 36.4153 65.4174 36.3213 65.4174 36.2273V31.3384H66.1058V36.2116C66.1058 36.3056 66.0745 36.3996 66.0119 36.4623C65.9493 36.5407 65.8711 36.572 65.7616 36.572Z" fill="white"/>
<path d="M71.801 36.5724C71.7071 36.5724 71.6132 36.541 71.5507 36.4784C71.4881 36.4157 71.4568 36.3217 71.4568 36.2277V31.6992C71.4568 31.5895 71.4881 31.5112 71.5507 31.4485C71.6132 31.3858 71.7071 31.3545 71.801 31.3545C71.9105 31.3545 71.9888 31.3858 72.0513 31.4485C72.1139 31.5112 72.1452 31.5895 72.1452 31.6992V36.2277C72.1452 36.3217 72.1139 36.4157 72.0513 36.4784C71.9731 36.541 71.8949 36.5724 71.801 36.5724Z" fill="white"/>
<path d="M78.0748 36.5724C77.934 36.5724 77.8245 36.494 77.7619 36.353L75.8062 31.8716C75.7436 31.7149 75.7436 31.5895 75.7905 31.4955C75.8375 31.4015 75.9313 31.3545 76.0722 31.3545C76.2286 31.3545 76.3381 31.4172 76.4007 31.5582L78.1217 35.6949H78.0435L79.7958 31.5582C79.8271 31.4798 79.8741 31.4172 79.921 31.4015C79.9679 31.3702 80.0305 31.3545 80.1087 31.3545C80.2495 31.3545 80.3278 31.4015 80.3904 31.4955C80.4373 31.5895 80.4373 31.6992 80.3904 31.8089L78.419 36.353C78.3877 36.4314 78.3408 36.4784 78.2938 36.5097C78.2156 36.5567 78.153 36.5724 78.0748 36.5724Z" fill="white"/>
<path d="M84.3643 36.5724C84.2705 36.5724 84.1766 36.541 84.114 36.4784C84.0514 36.4157 84.0201 36.3217 84.0201 36.2277V31.6992C84.0201 31.5895 84.0514 31.5112 84.114 31.4485C84.1766 31.3858 84.2705 31.3545 84.3643 31.3545H87.384C87.4935 31.3545 87.5717 31.3858 87.6343 31.4485C87.6969 31.5112 87.7282 31.5895 87.7282 31.6835C87.7282 31.7776 87.6969 31.8559 87.6343 31.9186C87.5717 31.9813 87.4935 32.0126 87.384 32.0126H84.7085V33.6422H86.633C86.7425 33.6422 86.8207 33.6736 86.8833 33.7362C86.9459 33.7989 86.9772 33.8773 86.9772 33.9713C86.9772 34.0653 86.9459 34.1436 86.8833 34.2063C86.8207 34.269 86.7425 34.3003 86.633 34.3003H84.7085V35.9769H87.384C87.4935 35.9769 87.5717 36.0083 87.6343 36.071C87.6969 36.1336 87.7282 36.212 87.7282 36.306C87.7282 36.4 87.6969 36.4784 87.6343 36.541C87.5717 36.6037 87.4935 36.6351 87.384 36.6351H84.3643V36.5724Z" fill="white"/>
<path d="M96.0515 36.5724C95.9263 36.5724 95.8324 36.5254 95.7698 36.4157C95.7073 36.3061 95.6916 36.1964 95.7542 36.071L97.6317 31.5739C97.6943 31.4172 97.8038 31.3389 97.9602 31.3389C98.1167 31.3389 98.2262 31.4172 98.2888 31.5739L100.166 36.071C100.213 36.1964 100.213 36.3061 100.151 36.4157C100.088 36.5098 99.9942 36.5724 99.8534 36.5724C99.7908 36.5724 99.7282 36.5568 99.6656 36.5098C99.603 36.4784 99.5561 36.4157 99.5405 36.3531L97.882 32.232H98.0698L96.38 36.3531C96.3487 36.4314 96.3018 36.4784 96.2392 36.5098C96.1766 36.5568 96.114 36.5724 96.0515 36.5724ZM96.4113 35.4129L96.6773 34.8331H99.2901L99.5561 35.4129H96.4113Z" fill="white"/>
<path d="M105.971 36.6348C105.611 36.6348 105.267 36.5721 104.954 36.4311C104.641 36.2901 104.36 36.102 104.125 35.867C103.89 35.6163 103.702 35.3342 103.577 35.0209C103.452 34.6918 103.374 34.3471 103.374 33.9553C103.374 33.5793 103.436 33.2345 103.577 32.9055C103.702 32.5764 103.89 32.2944 104.125 32.0593C104.36 31.8086 104.626 31.6206 104.938 31.4796C105.251 31.3386 105.596 31.2759 105.955 31.2759C106.3 31.2759 106.597 31.3229 106.847 31.4169C107.098 31.5109 107.348 31.6519 107.598 31.8556C107.63 31.887 107.661 31.9027 107.676 31.934C107.692 31.9653 107.708 31.9967 107.723 32.028C107.723 32.0593 107.739 32.0907 107.739 32.1377C107.739 32.216 107.708 32.2944 107.645 32.3571C107.583 32.4197 107.504 32.4511 107.426 32.4511C107.332 32.4511 107.254 32.4197 107.176 32.3571C107.004 32.216 106.847 32.1064 106.659 32.028C106.487 31.9497 106.253 31.9183 105.955 31.9183C105.689 31.9183 105.439 31.9653 105.22 32.075C104.985 32.1847 104.782 32.3257 104.61 32.5138C104.438 32.7018 104.297 32.9212 104.203 33.1719C104.109 33.4226 104.062 33.689 104.062 33.971C104.062 34.2531 104.109 34.5194 104.203 34.7701C104.297 35.0209 104.438 35.2402 104.61 35.4283C104.782 35.6163 104.985 35.7573 105.22 35.867C105.455 35.9767 105.705 36.0237 105.955 36.0237C106.174 36.0237 106.394 35.9767 106.597 35.8983C106.8 35.82 106.988 35.7103 107.176 35.5693C107.254 35.5066 107.332 35.4909 107.41 35.4909C107.489 35.4909 107.551 35.5223 107.614 35.585C107.661 35.6476 107.692 35.7103 107.692 35.82C107.692 35.867 107.676 35.914 107.676 35.9453C107.661 35.9924 107.63 36.0237 107.598 36.055C107.364 36.2587 107.113 36.3998 106.832 36.4938C106.566 36.5878 106.284 36.6348 105.971 36.6348ZM107.723 35.8043L107.051 35.6633V34.4724H106.128C106.034 34.4724 105.94 34.4411 105.877 34.3784C105.815 34.3157 105.783 34.2531 105.783 34.159C105.783 34.065 105.815 34.0023 105.877 33.9397C105.94 33.877 106.034 33.8457 106.128 33.8457H107.379C107.489 33.8457 107.567 33.877 107.63 33.9397C107.692 34.0023 107.723 34.0807 107.723 34.1904V35.8043V35.8043Z" fill="white"/>
<path d="M111.979 36.5724C111.885 36.5724 111.791 36.541 111.729 36.4784C111.666 36.4157 111.635 36.3217 111.635 36.2277V31.6992C111.635 31.5895 111.666 31.5112 111.729 31.4485C111.791 31.3858 111.885 31.3545 111.979 31.3545H114.998C115.108 31.3545 115.186 31.3858 115.249 31.4485C115.311 31.5112 115.343 31.5895 115.343 31.6835C115.343 31.7776 115.311 31.8559 115.249 31.9186C115.186 31.9813 115.108 32.0126 114.998 32.0126H112.323V33.6422H114.247C114.357 33.6422 114.435 33.6736 114.498 33.7362C114.56 33.7989 114.592 33.8773 114.592 33.9713C114.592 34.0653 114.56 34.1436 114.498 34.2063C114.435 34.269 114.357 34.3003 114.247 34.3003H112.323V35.9769H114.998C115.108 35.9769 115.186 36.0083 115.249 36.071C115.311 36.1336 115.343 36.212 115.343 36.306C115.343 36.4 115.311 36.4784 115.249 36.541C115.186 36.6037 115.108 36.6351 114.998 36.6351H111.979V36.5724Z" fill="white"/>
<path d="M119.457 36.5724C119.364 36.5724 119.285 36.541 119.207 36.4784C119.145 36.4157 119.113 36.3217 119.113 36.2277V31.6992C119.113 31.5895 119.145 31.5112 119.207 31.4485C119.27 31.3858 119.348 31.3545 119.457 31.3545C119.567 31.3545 119.661 31.4015 119.723 31.4798L122.634 35.3658V31.6992C122.634 31.5895 122.665 31.5112 122.727 31.4485C122.79 31.3858 122.884 31.3545 122.978 31.3545C123.087 31.3545 123.165 31.3858 123.228 31.4485C123.291 31.5112 123.322 31.5895 123.322 31.6992V36.2277C123.322 36.3217 123.291 36.4157 123.228 36.4784C123.165 36.541 123.087 36.5724 122.978 36.5724C122.931 36.5724 122.884 36.5567 122.837 36.541C122.79 36.5254 122.743 36.494 122.712 36.447L119.802 32.561V36.212C119.802 36.306 119.77 36.4 119.708 36.4627C119.645 36.541 119.567 36.5724 119.457 36.5724Z" fill="white"/>
<path d="M129.815 36.6348C129.455 36.6348 129.111 36.5721 128.798 36.4311C128.485 36.2901 128.203 36.102 127.969 35.867C127.734 35.6163 127.546 35.3342 127.421 35.0209C127.296 34.6918 127.218 34.3471 127.218 33.9553C127.218 33.5793 127.28 33.2345 127.421 32.9055C127.546 32.5764 127.734 32.2944 127.969 32.0593C128.203 31.8086 128.469 31.6206 128.782 31.4796C129.095 31.3386 129.439 31.2759 129.799 31.2759C130.144 31.2759 130.441 31.3229 130.691 31.4169C130.941 31.5109 131.192 31.6519 131.442 31.8556C131.473 31.887 131.505 31.9027 131.52 31.934C131.536 31.9653 131.552 31.9967 131.567 32.028C131.567 32.0593 131.583 32.0907 131.583 32.1377C131.583 32.216 131.552 32.2944 131.489 32.3414C131.426 32.4041 131.364 32.4354 131.27 32.4354C131.192 32.4354 131.098 32.4197 131.02 32.3571C130.848 32.216 130.691 32.1064 130.503 32.028C130.331 31.9497 130.097 31.9183 129.799 31.9183C129.533 31.9183 129.283 31.9653 129.064 32.075C128.829 32.1847 128.626 32.3257 128.454 32.5138C128.282 32.7018 128.141 32.9212 128.047 33.1719C127.953 33.4226 127.906 33.689 127.906 33.971C127.906 34.2531 127.953 34.5194 128.047 34.7701C128.141 35.0209 128.282 35.2402 128.454 35.4283C128.626 35.6163 128.829 35.7573 129.064 35.867C129.299 35.9767 129.549 36.0237 129.799 36.0237C130.018 36.0237 130.237 35.9767 130.441 35.8983C130.644 35.82 130.832 35.7103 131.02 35.5693C131.098 35.5066 131.176 35.4909 131.254 35.4909C131.333 35.4909 131.395 35.5223 131.458 35.585C131.505 35.6476 131.536 35.7103 131.536 35.82C131.536 35.867 131.52 35.914 131.505 35.9453C131.489 35.9924 131.458 36.0237 131.426 36.055C131.192 36.2431 130.926 36.3841 130.66 36.4938C130.409 36.5878 130.112 36.6348 129.815 36.6348Z" fill="white"/>
<path d="M137.028 36.572C136.934 36.572 136.856 36.5407 136.793 36.478C136.73 36.4153 136.699 36.3213 136.699 36.2273V34.6603L134.916 31.8869C134.853 31.7928 134.837 31.6988 134.853 31.6205C134.869 31.5421 134.9 31.4638 134.962 31.4168C135.025 31.3698 135.103 31.3384 135.181 31.3384C135.26 31.3384 135.322 31.3541 135.369 31.3854C135.416 31.4168 135.463 31.4638 135.494 31.5265L137.184 34.2216H136.918L138.639 31.4951C138.67 31.4481 138.717 31.4011 138.764 31.3698C138.811 31.3384 138.874 31.3228 138.952 31.3228C139.03 31.3228 139.093 31.3541 139.155 31.4011C139.202 31.4638 139.234 31.5265 139.249 31.6048C139.265 31.6831 139.234 31.7772 139.187 31.8555L137.388 34.629V36.1959C137.388 36.2899 137.356 36.384 137.294 36.4466C137.215 36.5407 137.137 36.572 137.028 36.572Z" fill="white"/>
</svg>
