<svg width="78" height="78" viewBox="0 0 78 78" fill="none" xmlns="http://www.w3.org/2000/svg">
<g clip-path="url(#clip0_71_1020)">
<path d="M76.3881 45.0936L70.3799 32.9065L68.1757 28.4978C67.6592 27.465 66.6035 26.8129 65.4504 26.8129H51.1855V57.2805H73.2728H73.2743H73.4267C75.1101 57.2805 76.4734 55.917 76.4734 54.2337V45.8125C76.4734 45.5702 76.4444 45.3282 76.3881 45.0936Z" fill="#85E374"/>
<path d="M76.388 45.0936H57.2789V32.9066H70.3799L76.1519 44.4507C76.254 44.6548 76.3332 44.8712 76.388 45.0936Z" fill="#57555C"/>
<path d="M73.2728 57.2805C73.3748 57.7725 73.4266 58.2814 73.4266 58.8039C73.4266 63.0099 70.0158 66.4208 65.8097 66.4208C61.6037 66.4208 58.1929 63.0099 58.1929 58.8039C58.1929 58.2814 58.2447 57.7725 58.3467 57.2805C59.0521 53.8041 62.1262 51.187 65.8097 51.187C69.4933 51.187 72.5674 53.8041 73.2728 57.2805Z" fill="#57555C"/>
<path d="M48.1386 11.5793H4.57016C2.88676 11.5793 1.52344 12.9427 1.52344 14.6261V54.2338C1.52344 55.9172 2.88691 57.2805 4.57016 57.2805H51.1854V14.6261C51.1854 12.9427 49.822 11.5793 48.1386 11.5793Z" fill="#F0E6DE"/>
<path d="M25.7435 57.2805C25.8455 57.7726 25.8973 58.2814 25.8973 58.804C25.8973 63.01 22.4865 66.4208 18.2805 66.4208C14.0744 66.4208 10.6636 63.01 10.6636 58.804C10.6636 58.2814 10.7154 57.7726 10.8174 57.2805C11.5228 53.8042 14.5969 51.1871 18.2805 51.1871C21.964 51.1871 25.0381 53.8042 25.7435 57.2805Z" fill="#57555C"/>
<path d="M7.61688 45.0934H1.52344V51.1869H7.61688V45.0934Z" fill="#57555C"/>
<path d="M16.7571 22.243C17.598 22.243 18.2805 21.5605 18.2805 20.7195C18.2805 19.8786 17.598 19.1961 16.7571 19.1961C15.9161 19.1961 15.2336 19.8786 15.2336 20.7195C15.2338 21.5605 15.9163 22.243 16.7571 22.243Z" fill="black"/>
<path d="M71.7425 32.2253L69.5382 27.8166C68.7588 26.2578 67.1926 25.2897 65.4504 25.2897H52.7088V14.6261C52.7088 12.1062 50.6587 10.0559 48.1386 10.0559H4.57016C2.05009 10.0559 0 12.106 0 14.6261V54.2338C0 56.7537 2.05009 58.8039 4.57016 58.8039H9.14032C9.14032 61.143 10.0247 63.279 11.4751 64.8974H1.52344C0.682043 64.8974 0 65.5796 0 66.4208C0 67.2621 0.682043 67.9443 1.52344 67.9443H76.4735C77.3149 67.9443 77.997 67.2621 77.997 66.4208C77.997 65.5796 77.3149 64.8974 76.4735 64.8974H72.6153C74.0659 63.2789 74.9501 61.143 74.9501 58.8039C74.9501 58.7171 74.946 58.6307 74.9435 58.544C76.72 57.917 77.9968 56.2222 77.9968 54.2338V45.8125C77.9968 44.0348 78.3489 45.6944 71.7425 32.2253ZM69.4384 34.4298L74.0086 43.5702H58.8022V34.4298H69.4384ZM59.0044 64.8974H25.0858C26.5365 63.2789 27.4207 61.143 27.4207 58.8039C28.5904 58.8039 56.1714 58.8039 56.6694 58.8039C56.6696 61.143 57.5538 63.279 59.0044 64.8974ZM3.04672 46.6169H6.09345V49.6636H3.04672V46.6169ZM4.57016 55.7572C3.73014 55.7572 3.04672 55.0738 3.04672 54.2338V52.7103H7.61688C8.45828 52.7103 9.14032 52.0281 9.14032 51.1869V45.0934C9.14032 44.2522 8.45828 43.57 7.61688 43.57H3.04672V14.6261C3.04672 13.786 3.73014 13.1026 4.57016 13.1026H48.1386C48.9787 13.1026 49.6621 13.786 49.6621 14.6261C49.6621 15.7594 49.6621 52.1039 49.6621 55.7572H26.8975C25.6253 52.1622 22.182 49.6638 18.2805 49.6638C14.3773 49.6638 10.9326 52.1642 9.66271 55.7572H4.57016ZM12.187 58.8039C12.187 58.3889 12.2282 57.9805 12.3104 57.5834C12.8834 54.7598 15.3942 52.7103 18.2805 52.7103C21.1668 52.7103 23.6777 54.7597 24.2505 57.5834C24.251 57.5856 24.2514 57.5876 24.2519 57.5897C24.333 57.9804 24.3739 58.3889 24.3739 58.8039C24.3739 62.1639 21.6404 64.8974 18.2805 64.8974C14.9205 64.8974 12.187 62.1637 12.187 58.8039ZM59.7163 58.8039C59.7163 58.3889 59.7574 57.9805 59.8397 57.5834C60.4127 54.7598 62.9235 52.7103 65.8098 52.7103C68.6961 52.7103 71.207 54.7597 71.7798 57.5834C71.7803 57.5856 71.7807 57.5876 71.7812 57.5897C71.8622 57.9804 71.9032 58.3889 71.9032 58.8039C71.9032 62.1639 69.1697 64.8974 65.8098 64.8974C62.4498 64.8974 59.7163 62.1637 59.7163 58.8039ZM74.3188 55.4661C72.9673 52.0278 69.6051 49.6638 65.8098 49.6638C61.9066 49.6638 58.4619 52.1642 57.192 55.7572H52.7086V28.3364H65.4502C66.031 28.3364 66.553 28.6594 66.8129 29.179L67.915 31.3831H57.279C56.4376 31.3831 55.7555 32.0653 55.7555 32.9066V45.0936C55.7555 45.9348 56.4376 46.617 57.279 46.617H74.9501V54.2339C74.9501 54.7405 74.7004 55.1888 74.3188 55.4661Z" fill="black"/>
<path d="M22.8507 22.243H42.0453C42.8867 22.243 43.5687 21.5608 43.5687 20.7195C43.5687 19.8783 42.8867 19.1961 42.0453 19.1961H22.8507C22.0093 19.1961 21.3273 19.8783 21.3273 20.7195C21.3273 21.5608 22.0093 22.243 22.8507 22.243Z" fill="black"/>
<path d="M42.0452 25.2897H28.9442C28.1028 25.2897 27.4208 25.9719 27.4208 26.8131C27.4208 27.6544 28.1028 28.3365 28.9442 28.3365H42.0452C42.8866 28.3365 43.5686 27.6544 43.5686 26.8131C43.5686 25.9719 42.8864 25.2897 42.0452 25.2897Z" fill="black"/>
<path d="M65.8098 55.7572C64.1297 55.7572 62.7631 57.124 62.7631 58.8039C62.7631 60.4838 64.1299 61.8506 65.8098 61.8506C67.4898 61.8506 68.8565 60.4838 68.8565 58.8039C68.8565 57.124 67.4898 55.7572 65.8098 55.7572Z" fill="black"/>
<path d="M18.2805 55.7572C16.6004 55.7572 15.2338 57.124 15.2338 58.8039C15.2338 60.4838 16.6006 61.8506 18.2805 61.8506C19.9604 61.8506 21.3272 60.4838 21.3272 58.8039C21.3272 57.124 19.9605 55.7572 18.2805 55.7572Z" fill="black"/>
</g>
<defs>
<clipPath id="clip0_71_1020">
<rect width="78" height="78" fill="white"/>
</clipPath>
</defs>
</svg>
