<svg width="226" height="226" viewBox="0 0 226 226" fill="none" xmlns="http://www.w3.org/2000/svg">
<path d="M113 226C50.6904 226 0 175.31 0 113C0 50.6905 50.6904 0 113 0C175.309 0 226 50.6905 226 113C225.988 175.31 175.298 226 113 226ZM113 3.79762C52.7857 3.79762 3.79762 52.7857 3.79762 113C3.79762 173.214 52.7857 222.202 113 222.202C173.214 222.202 222.202 173.214 222.202 113C222.202 52.7857 173.214 3.79762 113 3.79762Z" fill="#F6F6F6"/>
<path d="M113 213.655C57.5 213.655 12.3452 168.5 12.3452 113C12.3452 57.5005 57.5 12.3457 113 12.3457C168.5 12.3457 213.655 57.5005 213.655 113C213.643 168.5 168.488 213.655 113 213.655ZM113 16.1433C59.5952 16.1433 16.1428 59.5957 16.1428 113C16.1428 166.405 59.5952 209.858 113 209.858C166.405 209.858 209.857 166.405 209.857 113C209.857 59.5957 166.405 16.1433 113 16.1433Z" fill="#F6F6F6"/>
<path d="M113 201.309C64.3094 201.309 24.6904 161.69 24.6904 113C24.6904 64.3095 64.3094 24.6904 113 24.6904C161.69 24.6904 201.309 64.3095 201.309 113C201.298 161.69 161.69 201.309 113 201.309ZM113 28.4881C66.3928 28.4881 28.488 66.4047 28.488 113C28.488 159.607 66.4047 197.512 113 197.512C159.595 197.512 197.512 159.595 197.512 113C197.512 66.4047 159.595 28.4881 113 28.4881Z" fill="#F6F6F6"/>
<path d="M113 188.964C71.119 188.964 37.0356 154.893 37.0356 113C37.0356 71.119 71.1071 37.0356 113 37.0356C154.881 37.0356 188.964 71.1071 188.964 113C188.952 154.893 154.881 188.964 113 188.964ZM113 40.8333C73.2023 40.8333 40.8333 73.2142 40.8333 113C40.8333 152.798 73.2142 185.167 113 185.167C152.786 185.167 185.167 152.786 185.167 113C185.167 73.2142 152.786 40.8333 113 40.8333Z" fill="#F6F6F6"/>
<path d="M113 176.619C77.9166 176.619 49.3809 148.083 49.3809 113C49.3809 77.9166 77.9166 49.3809 113 49.3809C148.083 49.3809 176.619 77.9166 176.619 113C176.607 148.083 148.071 176.619 113 176.619ZM113 53.1785C80.0118 53.1785 53.1785 80.0118 53.1785 113C53.1785 145.988 80.0118 172.833 113 172.833C145.988 172.833 172.821 146 172.821 113C172.821 80.0118 145.988 53.1785 113 53.1785Z" fill="#F6F6F6"/>
<path d="M113 164.274C84.7262 164.274 61.7263 141.274 61.7263 113C61.7263 84.7266 84.7262 61.7266 113 61.7266C141.274 61.7266 164.274 84.7266 164.274 113C164.274 141.274 141.262 164.274 113 164.274ZM113 65.5242C86.8215 65.5242 65.512 86.8218 65.512 113.012C65.512 139.191 86.8096 160.5 113 160.5C139.191 160.5 160.488 139.203 160.488 113.012C160.476 86.8218 139.179 65.5242 113 65.5242Z" fill="#F6F6F6"/>
</svg>
