<svg width="78" height="78" viewBox="0 0 78 78" fill="none" xmlns="http://www.w3.org/2000/svg">
<path fill-rule="evenodd" clip-rule="evenodd" d="M12.9868 8.4845H27.0783C25.9196 9.70066 25.2058 11.3441 25.2058 13.1462V16.7225H52.7944V13.1464C52.7944 11.3443 52.0805 9.70081 50.9219 8.48465H65.0133V76.4766H12.9868V8.4845Z" fill="#A8D3D8"/>
<path fill-rule="evenodd" clip-rule="evenodd" d="M19.0112 14.5088H25.2058V16.7226H52.7942V14.5088H58.989V70.4522H19.0112V14.5088Z" fill="#DEECF1"/>
<path fill-rule="evenodd" clip-rule="evenodd" d="M31.9751 6.37696H34.1464C34.1464 3.69647 36.3194 1.52344 38.9999 1.52344C41.6806 1.52344 43.8535 3.69647 43.8535 6.37696H46.0247C49.7479 6.37696 52.7942 9.42322 52.7942 13.1464V16.7226H25.2058V13.1464C25.2058 9.42307 28.2519 6.37696 31.9751 6.37696Z" fill="#5F6B75"/>
<path fill-rule="evenodd" clip-rule="evenodd" d="M39.0001 55.808C46.3406 55.808 52.3274 49.821 52.3274 42.4805C52.3274 35.1401 46.3404 29.1531 39.0001 29.1531C31.6597 29.1531 25.6727 35.1401 25.6727 42.4805C25.6726 49.821 31.6595 55.808 39.0001 55.808Z" fill="#87E8D4"/>
<path fill-rule="evenodd" clip-rule="evenodd" d="M58.989 29.7435C58.1476 29.7435 57.4655 30.4255 57.4655 31.2669V68.9287H20.5347V65.8815C20.5347 65.0401 19.8526 64.3581 19.0112 64.3581C18.1698 64.3581 17.4878 65.0401 17.4878 65.8815V70.4521C17.4878 71.2935 18.1698 71.9756 19.0112 71.9756H58.989C59.8302 71.9756 60.5124 71.2935 60.5124 70.4521V31.2669C60.5124 30.4257 59.8302 29.7435 58.989 29.7435Z" fill="black"/>
<path fill-rule="evenodd" clip-rule="evenodd" d="M65.0131 6.96104H51.5409C50.074 5.6515 48.1412 4.85337 46.0247 4.85337H45.193C44.5084 2.0705 41.9914 0 39.0001 0C36.0088 0 33.4918 2.0705 32.807 4.85352H31.9752C29.8587 4.85352 27.9259 5.6515 26.4592 6.9612H12.9868C12.1454 6.9612 11.4634 7.64324 11.4634 8.48463V76.4766C11.4634 77.318 12.1454 78 12.9868 78H65.0133C65.8547 78 66.5367 77.318 66.5367 76.4766V8.48448C66.5366 7.64309 65.8545 6.96104 65.0131 6.96104ZM34.1464 7.90039C34.9878 7.90039 35.6699 7.21835 35.6699 6.37696C35.6699 4.54076 37.1638 3.04688 39 3.04688C40.8363 3.04688 42.33 4.54076 42.33 6.37696C42.33 7.21835 43.0122 7.90039 43.8535 7.90039H46.0247C47.4966 7.90039 48.828 8.51053 49.7816 9.4901C49.7946 9.50488 49.8051 9.52103 49.8187 9.53535C50.967 10.7468 51.2649 12.2107 51.2684 13.8196C51.2688 14.0493 51.2708 14.2792 51.2708 14.5088V15.199H26.7293V14.5088C26.7293 12.6573 26.8361 10.9473 28.1813 9.53535C28.1948 9.52103 28.2055 9.50473 28.2184 9.4901C29.172 8.51053 30.5035 7.90039 31.9752 7.90039H34.1464ZM63.4897 74.9531H14.5103V10.0079H24.3006C24.297 10.0171 24.2938 10.0264 24.2901 10.0356C23.9134 10.97 23.7059 11.9782 23.6864 12.9853H19.0112C18.1699 12.9853 17.4878 13.6674 17.4878 14.5088V53.6942C17.4878 54.5356 18.1699 55.2176 19.0112 55.2176C19.8526 55.2176 20.5347 54.5356 20.5347 53.6942V16.0322H23.6824V16.7225C23.6824 17.5639 24.3645 18.2459 25.2058 18.2459H52.7944C53.6356 18.2459 54.3178 17.5639 54.3178 16.7225V16.0322H57.4655V19.0794C57.4655 19.9208 58.1476 20.6028 58.989 20.6028C59.8302 20.6028 60.5124 19.9208 60.5124 19.0794V14.5088C60.5124 13.6674 59.8302 12.9853 58.989 12.9853H54.3139C54.2944 11.9759 54.0885 10.9657 53.708 10.0305C53.7048 10.023 53.7024 10.0154 53.6993 10.0081H63.4897V74.9531Z" fill="black"/>
<path fill-rule="evenodd" clip-rule="evenodd" d="M39.0001 57.3314C47.1888 57.3314 53.8508 50.6693 53.8508 42.4805C53.8508 34.2917 47.1888 27.6297 39.0001 27.6297C30.8113 27.6297 24.1493 34.2917 24.1493 42.4805C24.1491 50.6693 30.8113 57.3314 39.0001 57.3314ZM39.0001 30.6766C45.5088 30.6766 50.804 35.9717 50.804 42.4805C50.804 48.9894 45.5086 54.2845 39.0001 54.2845C32.4913 54.2845 27.1962 48.9892 27.1962 42.4805C27.196 35.9717 32.4912 30.6766 39.0001 30.6766Z" fill="black"/>
<path fill-rule="evenodd" clip-rule="evenodd" d="M35.903 48.8163C36.2005 49.1138 36.5904 49.2625 36.9802 49.2625C37.3701 49.2625 37.7601 49.1137 38.0575 48.8163L46.1366 40.737C46.7315 40.1421 46.7315 39.1775 46.1366 38.5826C45.5415 37.9878 44.5772 37.9877 43.982 38.5826L36.9801 45.5846L34.0176 42.6223C33.4227 42.0275 32.4581 42.0274 31.8631 42.6223C31.2682 43.2172 31.2682 44.1818 31.8633 44.7767L35.903 48.8163Z" fill="black"/>
<path fill-rule="evenodd" clip-rule="evenodd" d="M19.0112 61.3112C19.8503 61.3112 20.5347 60.6269 20.5347 59.7878C20.5347 58.9487 19.8503 58.2643 19.0112 58.2643C18.1721 58.2643 17.4878 58.9487 17.4878 59.7878C17.4878 60.6269 18.1721 61.3112 19.0112 61.3112Z" fill="black"/>
<path fill-rule="evenodd" clip-rule="evenodd" d="M58.989 23.6497C58.1499 23.6497 57.4656 24.334 57.4656 25.1732C57.4656 26.0123 58.1499 26.6966 58.989 26.6966C59.828 26.6966 60.5125 26.0123 60.5125 25.1732C60.5125 24.334 59.8278 23.6497 58.989 23.6497Z" fill="black"/>
</svg>
