<svg width="352" height="352" viewBox="0 0 352 352" fill="none" xmlns="http://www.w3.org/2000/svg">
<g filter="url(#filter0_f_83_1265)">
<circle cx="176" cy="176" r="100" fill="#FECFAC"/>
</g>
<g clip-path="url(#clip0_83_1265)">
<path d="M227.945 149.589H124.055C121.649 149.589 119.699 147.639 119.699 145.234V130.439C119.699 128.033 121.649 126.083 124.055 126.083H227.945C230.35 126.083 232.301 128.033 232.301 130.439V145.234C232.301 147.639 230.35 149.589 227.945 149.589Z" fill="#C6865C"/>
<path d="M227.945 185.753H124.055C121.649 185.753 119.699 183.803 119.699 181.397V166.603C119.699 164.197 121.649 162.247 124.055 162.247H227.945C230.35 162.247 232.301 164.197 232.301 166.603V181.397C232.301 183.803 230.35 185.753 227.945 185.753Z" fill="#C6865C"/>
<path d="M227.945 221.917H124.055C121.649 221.917 119.699 219.967 119.699 217.561V202.766C119.699 200.361 121.649 198.411 124.055 198.411H227.945C230.35 198.411 232.301 200.361 232.301 202.766V217.561C232.301 219.967 230.35 221.917 227.945 221.917Z" fill="#C6865C"/>
<path d="M232.302 140.259V145.235C232.302 147.641 230.351 149.589 227.945 149.589H124.057C121.651 149.589 119.7 147.641 119.7 145.235V140.259C119.7 142.665 121.651 144.616 124.057 144.616H227.945C230.351 144.616 232.302 142.665 232.302 140.259Z" fill="#B16E3D"/>
<path d="M232.302 176.423V181.399C232.302 183.805 230.351 185.753 227.945 185.753H124.057C121.651 185.753 119.7 183.805 119.7 181.399V176.423C119.7 178.829 121.651 180.78 124.057 180.78H227.945C230.351 180.78 232.302 178.829 232.302 176.423Z" fill="#B16E3D"/>
<path d="M232.302 212.587V217.562C232.302 219.969 230.351 221.917 227.945 221.917H124.057C121.651 221.917 119.7 219.969 119.7 217.562V212.587C119.7 214.993 121.651 216.944 124.057 216.944H227.945C230.351 216.944 232.302 214.993 232.302 212.587Z" fill="#B16E3D"/>
<path d="M142.748 230.301H136.464C134.789 230.301 133.432 228.943 133.432 227.268V120.732C133.432 119.057 134.789 117.699 136.464 117.699H142.748C144.423 117.699 145.781 119.057 145.781 120.732V227.268C145.781 228.943 144.423 230.301 142.748 230.301Z" fill="#B9C1CB"/>
<path d="M215.536 230.301H209.252C207.577 230.301 206.219 228.943 206.219 227.268V120.732C206.219 119.057 207.577 117.699 209.252 117.699H215.536C217.211 117.699 218.568 119.057 218.568 120.732V227.268C218.568 228.943 217.211 230.301 215.536 230.301Z" fill="#B9C1CB"/>
<path d="M140.611 230.301H136.465C134.791 230.301 133.431 228.944 133.431 227.268V120.734C133.431 119.057 134.791 117.7 136.465 117.7H140.611C138.937 117.7 137.577 119.057 137.577 120.734V227.268C137.577 228.944 138.937 230.301 140.611 230.301Z" fill="#909BA5"/>
<path d="M213.399 230.301H209.253C207.578 230.301 206.219 228.944 206.219 227.268V120.734C206.219 119.057 207.578 117.7 209.253 117.7H213.399C211.722 117.7 210.365 119.057 210.365 120.734V227.268C210.365 228.944 211.722 230.301 213.399 230.301Z" fill="#909BA5"/>
<path d="M227.944 151.289C231.283 151.289 234 148.573 234 145.233V130.439C234 127.099 231.283 124.383 227.944 124.383H220.268V120.732C220.268 118.123 218.145 116 215.536 116H209.252C206.642 116 204.52 118.123 204.52 120.732V124.383H163.347C162.409 124.383 161.648 125.144 161.648 126.082C161.648 127.021 162.409 127.781 163.347 127.781H204.52V147.891H147.48V127.781H156.551C157.489 127.781 158.25 127.021 158.25 126.082C158.25 125.144 157.489 124.383 156.551 124.383H147.48V120.732C147.48 118.123 145.357 116 142.748 116H136.465C133.855 116 131.732 118.123 131.732 120.732V124.383H124.056C120.717 124.383 118 127.1 118 130.439V145.233C118 148.573 120.717 151.289 124.056 151.289H131.732V160.547H124.056C120.717 160.547 118 163.263 118 166.603V181.397C118 184.737 120.717 187.453 124.056 187.453H131.732V196.711H124.056C120.717 196.711 118 199.427 118 202.766V217.561C118 220.9 120.717 223.617 124.056 223.617H131.732V227.268C131.732 229.877 133.855 232 136.464 232H142.748C145.357 232 147.48 229.877 147.48 227.268V223.617H204.52V227.268C204.52 229.877 206.642 232 209.252 232H215.535C218.145 232 220.267 229.877 220.267 227.268V223.617H227.944C231.283 223.617 234 220.9 234 217.561V202.766C234 199.427 231.283 196.71 227.944 196.71H220.267V187.453H227.944C231.283 187.453 234 184.736 234 181.397V166.602C234 163.263 231.283 160.546 227.944 160.546H220.267V151.289H227.944V151.289ZM227.944 127.781C229.409 127.781 230.601 128.974 230.601 130.439V145.234C230.601 146.699 229.409 147.891 227.944 147.891H220.268V127.781H227.944ZM204.52 184.055H147.48V163.945H204.52V184.055ZM147.48 187.453H204.52V196.711H147.48V187.453ZM204.52 151.289V160.547H147.48V151.289H204.52ZM124.056 147.891C122.591 147.891 121.399 146.699 121.399 145.233V130.439C121.398 128.974 122.591 127.781 124.056 127.781H131.732V147.891H124.056ZM124.056 184.055C122.591 184.055 121.399 182.863 121.399 181.397V166.603C121.399 165.137 122.591 163.945 124.056 163.945H131.732V184.055H124.056V184.055ZM124.056 220.219C122.591 220.219 121.399 219.027 121.399 217.561V202.766C121.399 201.301 122.591 200.109 124.056 200.109H131.732V220.218H124.056V220.219ZM144.082 227.268C144.082 228.003 143.483 228.601 142.748 228.601H136.465C135.729 228.601 135.131 228.003 135.131 227.268V120.732C135.131 119.997 135.729 119.398 136.465 119.398H142.748C143.484 119.398 144.082 119.997 144.082 120.732V227.268ZM216.869 227.268C216.869 228.003 216.271 228.601 215.536 228.601H209.252C208.516 228.601 207.918 228.003 207.918 227.268V208.927C207.918 207.989 207.157 207.228 206.219 207.228C205.281 207.228 204.52 207.989 204.52 208.927V220.219H147.48V200.109H204.52V202.13C204.52 203.069 205.281 203.83 206.219 203.83C207.157 203.83 207.918 203.069 207.918 202.13V120.732C207.918 119.997 208.517 119.398 209.252 119.398H215.536C216.271 119.398 216.869 119.997 216.869 120.732V227.268ZM227.944 200.109C229.409 200.109 230.601 201.301 230.601 202.767V217.561C230.601 219.027 229.409 220.219 227.944 220.219H220.268V200.109H227.944V200.109ZM227.944 163.945C229.409 163.945 230.601 165.137 230.601 166.603V181.397C230.601 182.863 229.409 184.055 227.944 184.055H220.268V163.945H227.944V163.945Z" fill="black"/>
</g>
<defs>
<filter id="filter0_f_83_1265" x="0" y="0" width="352" height="352" filterUnits="userSpaceOnUse" color-interpolation-filters="sRGB">
<feFlood flood-opacity="0" result="BackgroundImageFix"/>
<feBlend mode="normal" in="SourceGraphic" in2="BackgroundImageFix" result="shape"/>
<feGaussianBlur stdDeviation="38" result="effect1_foregroundBlur_83_1265"/>
</filter>
<clipPath id="clip0_83_1265">
<rect width="116" height="116" fill="white" transform="translate(118 113)"/>
</clipPath>
</defs>
</svg>
