<svg width="30" height="30" viewBox="0 0 30 30" fill="none" xmlns="http://www.w3.org/2000/svg">
<path d="M14.9998 0C23.2842 0 29.9999 6.61894 29.9999 14.7837C29.9999 15.1218 29.9872 15.457 29.9647 15.7895C25.8363 13.9605 20.6424 12.8705 14.9998 12.8705C9.35734 12.8705 4.1635 13.9605 0.0350172 15.7895C0.0125197 15.457 -0.00012207 15.1218 -0.00012207 14.7837C-0.00012207 6.61894 6.71556 0 14.9998 0Z" fill="white"/>
<path d="M29.9999 16.2229C29.3954 23.9311 22.9081 30 14.9917 30C9.70386 30 5.05417 27.2918 2.36829 23.1964C6.47949 18.7892 14.5967 15.7895 23.9393 15.7895C26.0314 15.7895 28.0618 15.94 29.9999 16.2229Z" fill="white"/>
</svg>
